<?xml version="1.0" encoding="utf-8" standalone="no"?>
<!DOCTYPE svg PUBLIC "-//W3C//DTD SVG 1.1//EN"
  "http://www.w3.org/Graphics/SVG/1.1/DTD/svg11.dtd">
<svg xmlns:xlink="http://www.w3.org/1999/xlink" width="1288.8pt" height="712.427216pt" viewBox="0 0 1288.8 712.427216" xmlns="http://www.w3.org/2000/svg" version="1.1">
 <metadata>
  <rdf:RDF xmlns:dc="http://purl.org/dc/elements/1.1/" xmlns:cc="http://creativecommons.org/ns#" xmlns:rdf="http://www.w3.org/1999/02/22-rdf-syntax-ns#">
   <cc:Work>
    <dc:type rdf:resource="http://purl.org/dc/dcmitype/StillImage"/>
    <dc:date>2026-06-19T03:45:45.470645</dc:date>
    <dc:format>image/svg+xml</dc:format>
    <dc:creator>
     <cc:Agent>
      <dc:title>Matplotlib v3.10.9, https://matplotlib.org/</dc:title>
     </cc:Agent>
    </dc:creator>
   </cc:Work>
  </rdf:RDF>
 </metadata>
 <defs>
  <style type="text/css">*{stroke-linejoin: round; stroke-linecap: butt}</style>
 </defs>
 <g id="figure_1">
  <g id="patch_1">
   <path d="M 0 712.427216 
L 1288.8 712.427216 
L 1288.8 0 
L 0 0 
z
" style="fill: #ffffff"/>
  </g>
  <g id="axes_1">
   <g id="LineCollection_1">
    <path d="M 625.623977 251.456526 
L 603.281481 223.892686 
" clip-path="url(#pb5629b7e9f)" style="fill: none; stroke: #000000; stroke-opacity: 0.85; stroke-width: 1.5"/>
    <path d="M 625.623977 251.456526 
L 681.105529 267.89075 
" clip-path="url(#pb5629b7e9f)" style="fill: none; stroke: #000000; stroke-opacity: 0.85; stroke-width: 1.5"/>
    <path d="M 356.705669 101.300381 
L 335.487236 79.325634 
" clip-path="url(#pb5629b7e9f)" style="fill: none; stroke: #000000; stroke-opacity: 0.85; stroke-width: 1.5"/>
    <path d="M 770.194498 138.227948 
L 743.487583 181.212967 
" clip-path="url(#pb5629b7e9f)" style="fill: none; stroke: #000000; stroke-opacity: 0.85; stroke-width: 1.5"/>
    <path d="M 770.194498 138.227948 
L 780.113317 118.362554 
" clip-path="url(#pb5629b7e9f)" style="fill: none; stroke: #000000; stroke-opacity: 0.85; stroke-width: 1.5"/>
    <path d="M 390.271453 517.172641 
L 371.741753 536.007642 
" clip-path="url(#pb5629b7e9f)" style="fill: none; stroke: #000000; stroke-opacity: 0.85; stroke-width: 1.5"/>
    <path d="M 739.702542 268.792777 
L 735.879338 248.275149 
" clip-path="url(#pb5629b7e9f)" style="fill: none; stroke: #000000; stroke-opacity: 0.85; stroke-width: 1.5"/>
    <path d="M 739.702542 268.792777 
L 688.800507 266.496079 
" clip-path="url(#pb5629b7e9f)" style="fill: none; stroke: #000000; stroke-opacity: 0.85; stroke-width: 1.5"/>
    <path d="M 290.528167 182.302337 
L 302.521647 203.874642 
" clip-path="url(#pb5629b7e9f)" style="fill: none; stroke: #000000; stroke-opacity: 0.85; stroke-width: 1.5"/>
    <path d="M 886.902816 604.967549 
L 866.124989 589.362495 
" clip-path="url(#pb5629b7e9f)" style="fill: none; stroke: #000000; stroke-opacity: 0.85; stroke-width: 1.5"/>
    <path d="M 680.980633 267.974014 
L 603.281481 223.892686 
" clip-path="url(#pb5629b7e9f)" style="fill: none; stroke: #000000; stroke-opacity: 0.85; stroke-width: 1.5"/>
    <path d="M 680.980633 267.974014 
L 684.987712 339.154293 
" clip-path="url(#pb5629b7e9f)" style="fill: none; stroke: #000000; stroke-opacity: 0.85; stroke-width: 1.5"/>
    <path d="M 684.987712 339.154293 
L 690.44844 388.460435 
" clip-path="url(#pb5629b7e9f)" style="fill: none; stroke: #000000; stroke-opacity: 0.85; stroke-width: 1.5"/>
    <path d="M 562.849889 607.052617 
L 555.085525 644.41385 
" clip-path="url(#pb5629b7e9f)" style="fill: none; stroke: #000000; stroke-opacity: 0.85; stroke-width: 1.5"/>
    <path d="M 695.100813 206.535619 
L 681.105529 267.89075 
" clip-path="url(#pb5629b7e9f)" style="fill: none; stroke: #000000; stroke-opacity: 0.85; stroke-width: 1.5"/>
    <path d="M 695.100813 206.535619 
L 679.259845 204.50953 
" clip-path="url(#pb5629b7e9f)" style="fill: none; stroke: #000000; stroke-opacity: 0.85; stroke-width: 1.5"/>
    <path d="M 695.100813 206.535619 
L 688.200313 165.541996 
" clip-path="url(#pb5629b7e9f)" style="fill: none; stroke: #000000; stroke-opacity: 0.85; stroke-width: 1.5"/>
    <path d="M 681.147161 267.849118 
L 681.105529 267.89075 
" clip-path="url(#pb5629b7e9f)" style="fill: none; stroke: #000000; stroke-opacity: 0.85; stroke-width: 1.5"/>
    <path d="M 681.147161 267.849118 
L 653.659646 225.606536 
" clip-path="url(#pb5629b7e9f)" style="fill: none; stroke: #000000; stroke-opacity: 0.85; stroke-width: 1.5"/>
    <path d="M 681.147161 267.849118 
L 651.87641 291.024254 
" clip-path="url(#pb5629b7e9f)" style="fill: none; stroke: #000000; stroke-opacity: 0.85; stroke-width: 1.5"/>
    <path d="M 681.147161 267.849118 
L 679.259845 204.50953 
" clip-path="url(#pb5629b7e9f)" style="fill: none; stroke: #000000; stroke-opacity: 0.85; stroke-width: 1.5"/>
    <path d="M 688.800507 266.496079 
L 735.879338 248.275149 
" clip-path="url(#pb5629b7e9f)" style="fill: none; stroke: #000000; stroke-opacity: 0.85; stroke-width: 1.5"/>
    <path d="M 688.800507 266.496079 
L 743.591663 316.457925 
" clip-path="url(#pb5629b7e9f)" style="fill: none; stroke: #000000; stroke-opacity: 0.85; stroke-width: 1.5"/>
    <path d="M 688.800507 266.496079 
L 743.487583 181.212967 
" clip-path="url(#pb5629b7e9f)" style="fill: none; stroke: #000000; stroke-opacity: 0.85; stroke-width: 1.5"/>
    <path d="M 688.800507 266.496079 
L 710.126489 296.439881 
" clip-path="url(#pb5629b7e9f)" style="fill: none; stroke: #000000; stroke-opacity: 0.85; stroke-width: 1.5"/>
    <path d="M 688.800507 266.496079 
L 801.789702 253.999546 
" clip-path="url(#pb5629b7e9f)" style="fill: none; stroke: #000000; stroke-opacity: 0.85; stroke-width: 1.5"/>
    <path d="M 780.113317 118.362554 
L 806.077796 73.098184 
" clip-path="url(#pb5629b7e9f)" style="fill: none; stroke: #000000; stroke-opacity: 0.85; stroke-width: 1.5"/>
    <path d="M 780.113317 118.362554 
L 743.487583 181.212967 
" clip-path="url(#pb5629b7e9f)" style="fill: none; stroke: #000000; stroke-opacity: 0.85; stroke-width: 1.5"/>
    <path d="M 524.357654 135.584317 
L 556.473258 173.160648 
" clip-path="url(#pb5629b7e9f)" style="fill: none; stroke: #000000; stroke-opacity: 0.85; stroke-width: 1.5"/>
    <path d="M 463.418843 569.726077 
L 444.27507 602.931051 
" clip-path="url(#pb5629b7e9f)" style="fill: none; stroke: #000000; stroke-opacity: 0.85; stroke-width: 1.5"/>
    <path d="M 645.499778 309.588648 
L 651.87641 291.024254 
" clip-path="url(#pb5629b7e9f)" style="fill: none; stroke: #000000; stroke-opacity: 0.85; stroke-width: 1.5"/>
    <path d="M 645.499778 309.588648 
L 681.105529 267.89075 
" clip-path="url(#pb5629b7e9f)" style="fill: none; stroke: #000000; stroke-opacity: 0.85; stroke-width: 1.5"/>
    <path d="M 782.12206 351.241444 
L 743.591663 316.457925 
" clip-path="url(#pb5629b7e9f)" style="fill: none; stroke: #000000; stroke-opacity: 0.85; stroke-width: 1.5"/>
    <path d="M 556.473258 173.160648 
L 603.281481 223.892686 
" clip-path="url(#pb5629b7e9f)" style="fill: none; stroke: #000000; stroke-opacity: 0.85; stroke-width: 1.5"/>
    <path d="M 710.126489 296.439881 
L 688.800507 266.579343 
" clip-path="url(#pb5629b7e9f)" style="fill: none; stroke: #000000; stroke-opacity: 0.85; stroke-width: 1.5"/>
    <path d="M 667.429424 654.447157 
L 657.194895 611.236631 
" clip-path="url(#pb5629b7e9f)" style="fill: none; stroke: #000000; stroke-opacity: 0.85; stroke-width: 1.5"/>
    <path d="M 864.081552 252.698547 
L 801.789702 253.999546 
" clip-path="url(#pb5629b7e9f)" style="fill: none; stroke: #000000; stroke-opacity: 0.85; stroke-width: 1.5"/>
    <path d="M 864.081552 252.698547 
L 883.683276 239.851612 
" clip-path="url(#pb5629b7e9f)" style="fill: none; stroke: #000000; stroke-opacity: 0.85; stroke-width: 1.5"/>
    <path d="M 864.081552 252.698547 
L 908.159412 251.858969 
" clip-path="url(#pb5629b7e9f)" style="fill: none; stroke: #000000; stroke-opacity: 0.85; stroke-width: 1.5"/>
    <path d="M 329.093258 441.107543 
L 334.831533 417.928938 
" clip-path="url(#pb5629b7e9f)" style="fill: none; stroke: #000000; stroke-opacity: 0.85; stroke-width: 1.5"/>
    <path d="M 629.901663 177.452212 
L 653.659646 225.606536 
" clip-path="url(#pb5629b7e9f)" style="fill: none; stroke: #000000; stroke-opacity: 0.85; stroke-width: 1.5"/>
    <path d="M 651.87641 291.024254 
L 681.105529 267.89075 
" clip-path="url(#pb5629b7e9f)" style="fill: none; stroke: #000000; stroke-opacity: 0.85; stroke-width: 1.5"/>
    <path d="M 688.200313 165.541996 
L 679.259845 204.50953 
" clip-path="url(#pb5629b7e9f)" style="fill: none; stroke: #000000; stroke-opacity: 0.85; stroke-width: 1.5"/>
    <path d="M 345.988904 360.129872 
L 370.253409 372.55008 
" clip-path="url(#pb5629b7e9f)" style="fill: none; stroke: #000000; stroke-opacity: 0.85; stroke-width: 1.5"/>
    <path d="M 603.281481 223.892686 
L 556.213058 213.547139 
" clip-path="url(#pb5629b7e9f)" style="fill: none; stroke: #000000; stroke-opacity: 0.85; stroke-width: 1.5"/>
    <path d="M 681.105529 267.89075 
L 653.659646 225.606536 
" clip-path="url(#pb5629b7e9f)" style="fill: none; stroke: #000000; stroke-opacity: 0.85; stroke-width: 1.5"/>
    <path d="M 643.157979 554.773258 
L 657.194895 611.236631 
" clip-path="url(#pb5629b7e9f)" style="fill: none; stroke: #000000; stroke-opacity: 0.85; stroke-width: 1.5"/>
    <path d="M 908.159412 251.858969 
L 883.683276 239.851612 
" clip-path="url(#pb5629b7e9f)" style="fill: none; stroke: #000000; stroke-opacity: 0.85; stroke-width: 1.5"/>
    <path d="M 801.789702 253.999546 
L 883.683276 239.851612 
" clip-path="url(#pb5629b7e9f)" style="fill: none; stroke: #000000; stroke-opacity: 0.85; stroke-width: 1.5"/>
    <path d="M 883.683276 239.851612 
L 950.450565 225.200624 
" clip-path="url(#pb5629b7e9f)" style="fill: none; stroke: #000000; stroke-opacity: 0.85; stroke-width: 1.5"/>
    <path d="M 950.450565 225.200624 
L 998.271833 215.038951 
" clip-path="url(#pb5629b7e9f)" style="fill: none; stroke: #000000; stroke-opacity: 0.85; stroke-width: 1.5"/>
   </g>
   <g id="PathCollection_1">
    <defs>
     <path id="me47e5bba24" d="M 0 12.747549 
C 3.380689 12.747549 6.62337 11.404387 9.013878 9.013878 
C 11.404387 6.62337 12.747549 3.380689 12.747549 0 
C 12.747549 -3.380689 11.404387 -6.62337 9.013878 -9.013878 
C 6.62337 -11.404387 3.380689 -12.747549 0 -12.747549 
C -3.380689 -12.747549 -6.62337 -11.404387 -9.013878 -9.013878 
C -11.404387 -6.62337 -12.747549 -3.380689 -12.747549 0 
C -12.747549 3.380689 -11.404387 6.62337 -9.013878 9.013878 
C -6.62337 11.404387 -3.380689 12.747549 0 12.747549 
z
" style="stroke: #4a90d9"/>
    </defs>
    <g clip-path="url(#pb5629b7e9f)">
     <use xlink:href="#me47e5bba24" x="625.623977" y="251.456526" style="fill: #4a90d9; stroke: #4a90d9"/>
     <use xlink:href="#me47e5bba24" x="356.705669" y="101.300381" style="fill: #4a90d9; stroke: #4a90d9"/>
     <use xlink:href="#me47e5bba24" x="770.194498" y="138.227948" style="fill: #4a90d9; stroke: #4a90d9"/>
     <use xlink:href="#me47e5bba24" x="390.271453" y="517.172641" style="fill: #4a90d9; stroke: #4a90d9"/>
     <use xlink:href="#me47e5bba24" x="335.487236" y="79.325634" style="fill: #4a90d9; stroke: #4a90d9"/>
     <use xlink:href="#me47e5bba24" x="739.702542" y="268.792777" style="fill: #4a90d9; stroke: #4a90d9"/>
     <use xlink:href="#me47e5bba24" x="290.528167" y="182.302337" style="fill: #4a90d9; stroke: #4a90d9"/>
     <use xlink:href="#me47e5bba24" x="886.902816" y="604.967549" style="fill: #4a90d9; stroke: #4a90d9"/>
     <use xlink:href="#me47e5bba24" x="684.987712" y="339.154293" style="fill: #4a90d9; stroke: #4a90d9"/>
     <use xlink:href="#me47e5bba24" x="562.849889" y="607.052617" style="fill: #4a90d9; stroke: #4a90d9"/>
     <use xlink:href="#me47e5bba24" x="695.100813" y="206.535619" style="fill: #4a90d9; stroke: #4a90d9"/>
     <use xlink:href="#me47e5bba24" x="780.113317" y="118.362554" style="fill: #4a90d9; stroke: #4a90d9"/>
     <use xlink:href="#me47e5bba24" x="524.357654" y="135.584317" style="fill: #4a90d9; stroke: #4a90d9"/>
     <use xlink:href="#me47e5bba24" x="463.418843" y="569.726077" style="fill: #4a90d9; stroke: #4a90d9"/>
     <use xlink:href="#me47e5bba24" x="735.879338" y="248.275149" style="fill: #4a90d9; stroke: #4a90d9"/>
     <use xlink:href="#me47e5bba24" x="555.085525" y="644.41385" style="fill: #4a90d9; stroke: #4a90d9"/>
     <use xlink:href="#me47e5bba24" x="645.499778" y="309.588648" style="fill: #4a90d9; stroke: #4a90d9"/>
     <use xlink:href="#me47e5bba24" x="782.12206" y="351.241444" style="fill: #4a90d9; stroke: #4a90d9"/>
     <use xlink:href="#me47e5bba24" x="556.473258" y="173.160648" style="fill: #4a90d9; stroke: #4a90d9"/>
     <use xlink:href="#me47e5bba24" x="710.126489" y="296.439881" style="fill: #4a90d9; stroke: #4a90d9"/>
     <use xlink:href="#me47e5bba24" x="667.429424" y="654.447157" style="fill: #4a90d9; stroke: #4a90d9"/>
     <use xlink:href="#me47e5bba24" x="864.081552" y="252.698547" style="fill: #4a90d9; stroke: #4a90d9"/>
     <use xlink:href="#me47e5bba24" x="329.093258" y="441.107543" style="fill: #4a90d9; stroke: #4a90d9"/>
     <use xlink:href="#me47e5bba24" x="629.901663" y="177.452212" style="fill: #4a90d9; stroke: #4a90d9"/>
     <use xlink:href="#me47e5bba24" x="651.87641" y="291.024254" style="fill: #4a90d9; stroke: #4a90d9"/>
     <use xlink:href="#me47e5bba24" x="302.521647" y="203.874642" style="fill: #4a90d9; stroke: #4a90d9"/>
     <use xlink:href="#me47e5bba24" x="688.200313" y="165.541996" style="fill: #4a90d9; stroke: #4a90d9"/>
     <use xlink:href="#me47e5bba24" x="345.988904" y="360.129872" style="fill: #4a90d9; stroke: #4a90d9"/>
     <use xlink:href="#me47e5bba24" x="603.281481" y="223.892686" style="fill: #4a90d9; stroke: #4a90d9"/>
     <use xlink:href="#me47e5bba24" x="444.27507" y="602.931051" style="fill: #4a90d9; stroke: #4a90d9"/>
     <use xlink:href="#me47e5bba24" x="743.591663" y="316.457925" style="fill: #4a90d9; stroke: #4a90d9"/>
     <use xlink:href="#me47e5bba24" x="866.124989" y="589.362495" style="fill: #4a90d9; stroke: #4a90d9"/>
     <use xlink:href="#me47e5bba24" x="643.157979" y="554.773258" style="fill: #4a90d9; stroke: #4a90d9"/>
     <use xlink:href="#me47e5bba24" x="371.741753" y="536.007642" style="fill: #4a90d9; stroke: #4a90d9"/>
     <use xlink:href="#me47e5bba24" x="657.194895" y="611.236631" style="fill: #4a90d9; stroke: #4a90d9"/>
     <use xlink:href="#me47e5bba24" x="334.831533" y="417.928938" style="fill: #4a90d9; stroke: #4a90d9"/>
     <use xlink:href="#me47e5bba24" x="806.077796" y="73.098184" style="fill: #4a90d9; stroke: #4a90d9"/>
     <use xlink:href="#me47e5bba24" x="908.159412" y="251.858969" style="fill: #4a90d9; stroke: #4a90d9"/>
     <use xlink:href="#me47e5bba24" x="653.659646" y="225.606536" style="fill: #4a90d9; stroke: #4a90d9"/>
     <use xlink:href="#me47e5bba24" x="801.789702" y="253.999546" style="fill: #4a90d9; stroke: #4a90d9"/>
     <use xlink:href="#me47e5bba24" x="743.487583" y="181.212967" style="fill: #4a90d9; stroke: #4a90d9"/>
     <use xlink:href="#me47e5bba24" x="883.683276" y="239.851612" style="fill: #4a90d9; stroke: #4a90d9"/>
     <use xlink:href="#me47e5bba24" x="950.450565" y="225.200624" style="fill: #4a90d9; stroke: #4a90d9"/>
     <use xlink:href="#me47e5bba24" x="998.271833" y="215.038951" style="fill: #4a90d9; stroke: #4a90d9"/>
     <use xlink:href="#me47e5bba24" x="556.213058" y="213.547139" style="fill: #4a90d9; stroke: #4a90d9"/>
     <use xlink:href="#me47e5bba24" x="690.44844" y="388.460435" style="fill: #4a90d9; stroke: #4a90d9"/>
     <use xlink:href="#me47e5bba24" x="679.259845" y="204.50953" style="fill: #4a90d9; stroke: #4a90d9"/>
     <use xlink:href="#me47e5bba24" x="370.253409" y="372.55008" style="fill: #4a90d9; stroke: #4a90d9"/>
    </g>
   </g>
   <g id="PathCollection_2">
    <defs>
     <path id="mbfea3850e2" d="M 0 13.693064 
C 3.631443 13.693064 7.11464 12.250276 9.682458 9.682458 
C 12.250276 7.11464 13.693064 3.631443 13.693064 0 
C 13.693064 -3.631443 12.250276 -7.11464 9.682458 -9.682458 
C 7.11464 -12.250276 3.631443 -13.693064 0 -13.693064 
C -3.631443 -13.693064 -7.11464 -12.250276 -9.682458 -9.682458 
C -12.250276 -7.11464 -13.693064 -3.631443 -13.693064 0 
C -13.693064 3.631443 -12.250276 7.11464 -9.682458 9.682458 
C -7.11464 12.250276 -3.631443 13.693064 0 13.693064 
z
" style="stroke: #333333; stroke-width: 1.5"/>
    </defs>
    <g clip-path="url(#pb5629b7e9f)">
     <use xlink:href="#mbfea3850e2" x="680.980633" y="267.974014" style="fill: #e8650a; stroke: #333333; stroke-width: 1.5"/>
     <use xlink:href="#mbfea3850e2" x="681.147161" y="267.849118" style="fill: #e8650a; stroke: #333333; stroke-width: 1.5"/>
     <use xlink:href="#mbfea3850e2" x="688.800507" y="266.496079" style="fill: #e8650a; stroke: #333333; stroke-width: 1.5"/>
     <use xlink:href="#mbfea3850e2" x="681.105529" y="267.89075" style="fill: #e8650a; stroke: #333333; stroke-width: 1.5"/>
     <use xlink:href="#mbfea3850e2" x="688.800507" y="266.579343" style="fill: #e8650a; stroke: #333333; stroke-width: 1.5"/>
    </g>
   </g>
   <g id="text_1">
    <g id="patch_2">
     <path d="M 602.735227 259.327776 
L 648.512727 259.327776 
L 648.512727 243.585276 
L 602.735227 243.585276 
z
" clip-path="url(#pb5629b7e9f)" style="fill: #ffffff; opacity: 0.7"/>
    </g>
    <g clip-path="url(#pb5629b7e9f)">
     <!-- Alforzada -->
     <g transform="translate(606.735227 253.664026) scale(0.08 -0.08)">
      <defs>
       <path id="DejaVuSans-41" d="M 2188 4044 
L 1331 1722 
L 3047 1722 
L 2188 4044 
z
M 1831 4666 
L 2547 4666 
L 4325 0 
L 3669 0 
L 3244 1197 
L 1141 1197 
L 716 0 
L 50 0 
L 1831 4666 
z
" transform="scale(0.015625)"/>
       <path id="DejaVuSans-6c" d="M 603 4863 
L 1178 4863 
L 1178 0 
L 603 0 
L 603 4863 
z
" transform="scale(0.015625)"/>
       <path id="DejaVuSans-66" d="M 2375 4863 
L 2375 4384 
L 1825 4384 
Q 1516 4384 1395 4259 
Q 1275 4134 1275 3809 
L 1275 3500 
L 2222 3500 
L 2222 3053 
L 1275 3053 
L 1275 0 
L 697 0 
L 697 3053 
L 147 3053 
L 147 3500 
L 697 3500 
L 697 3744 
Q 697 4328 969 4595 
Q 1241 4863 1831 4863 
L 2375 4863 
z
" transform="scale(0.015625)"/>
       <path id="DejaVuSans-6f" d="M 1959 3097 
Q 1497 3097 1228 2736 
Q 959 2375 959 1747 
Q 959 1119 1226 758 
Q 1494 397 1959 397 
Q 2419 397 2687 759 
Q 2956 1122 2956 1747 
Q 2956 2369 2687 2733 
Q 2419 3097 1959 3097 
z
M 1959 3584 
Q 2709 3584 3137 3096 
Q 3566 2609 3566 1747 
Q 3566 888 3137 398 
Q 2709 -91 1959 -91 
Q 1206 -91 779 398 
Q 353 888 353 1747 
Q 353 2609 779 3096 
Q 1206 3584 1959 3584 
z
" transform="scale(0.015625)"/>
       <path id="DejaVuSans-72" d="M 2631 2963 
Q 2534 3019 2420 3045 
Q 2306 3072 2169 3072 
Q 1681 3072 1420 2755 
Q 1159 2438 1159 1844 
L 1159 0 
L 581 0 
L 581 3500 
L 1159 3500 
L 1159 2956 
Q 1341 3275 1631 3429 
Q 1922 3584 2338 3584 
Q 2397 3584 2469 3576 
Q 2541 3569 2628 3553 
L 2631 2963 
z
" transform="scale(0.015625)"/>
       <path id="DejaVuSans-7a" d="M 353 3500 
L 3084 3500 
L 3084 2975 
L 922 459 
L 3084 459 
L 3084 0 
L 275 0 
L 275 525 
L 2438 3041 
L 353 3041 
L 353 3500 
z
" transform="scale(0.015625)"/>
       <path id="DejaVuSans-61" d="M 2194 1759 
Q 1497 1759 1228 1600 
Q 959 1441 959 1056 
Q 959 750 1161 570 
Q 1363 391 1709 391 
Q 2188 391 2477 730 
Q 2766 1069 2766 1631 
L 2766 1759 
L 2194 1759 
z
M 3341 1997 
L 3341 0 
L 2766 0 
L 2766 531 
Q 2569 213 2275 61 
Q 1981 -91 1556 -91 
Q 1019 -91 701 211 
Q 384 513 384 1019 
Q 384 1609 779 1909 
Q 1175 2209 1959 2209 
L 2766 2209 
L 2766 2266 
Q 2766 2663 2505 2880 
Q 2244 3097 1772 3097 
Q 1472 3097 1187 3025 
Q 903 2953 641 2809 
L 641 3341 
Q 956 3463 1253 3523 
Q 1550 3584 1831 3584 
Q 2591 3584 2966 3190 
Q 3341 2797 3341 1997 
z
" transform="scale(0.015625)"/>
       <path id="DejaVuSans-64" d="M 2906 2969 
L 2906 4863 
L 3481 4863 
L 3481 0 
L 2906 0 
L 2906 525 
Q 2725 213 2448 61 
Q 2172 -91 1784 -91 
Q 1150 -91 751 415 
Q 353 922 353 1747 
Q 353 2572 751 3078 
Q 1150 3584 1784 3584 
Q 2172 3584 2448 3432 
Q 2725 3281 2906 2969 
z
M 947 1747 
Q 947 1113 1208 752 
Q 1469 391 1925 391 
Q 2381 391 2643 752 
Q 2906 1113 2906 1747 
Q 2906 2381 2643 2742 
Q 2381 3103 1925 3103 
Q 1469 3103 1208 2742 
Q 947 2381 947 1747 
z
" transform="scale(0.015625)"/>
      </defs>
      <use xlink:href="#DejaVuSans-41"/>
      <use xlink:href="#DejaVuSans-6c" transform="translate(68.408203 0)"/>
      <use xlink:href="#DejaVuSans-66" transform="translate(96.191406 0)"/>
      <use xlink:href="#DejaVuSans-6f" transform="translate(131.396484 0)"/>
      <use xlink:href="#DejaVuSans-72" transform="translate(192.578125 0)"/>
      <use xlink:href="#DejaVuSans-7a" transform="translate(233.691406 0)"/>
      <use xlink:href="#DejaVuSans-61" transform="translate(286.181641 0)"/>
      <use xlink:href="#DejaVuSans-64" transform="translate(347.460938 0)"/>
      <use xlink:href="#DejaVuSans-61" transform="translate(410.9375 0)"/>
     </g>
    </g>
   </g>
   <g id="text_2">
    <g id="patch_3">
     <path d="M 333.633794 109.171631 
L 379.777544 109.171631 
L 379.777544 93.429131 
L 333.633794 93.429131 
z
" clip-path="url(#pb5629b7e9f)" style="fill: #ffffff; opacity: 0.7"/>
    </g>
    <g clip-path="url(#pb5629b7e9f)">
     <!-- Amon Sul -->
     <g transform="translate(337.633794 103.507881) scale(0.08 -0.08)">
      <defs>
       <path id="DejaVuSans-6d" d="M 3328 2828 
Q 3544 3216 3844 3400 
Q 4144 3584 4550 3584 
Q 5097 3584 5394 3201 
Q 5691 2819 5691 2113 
L 5691 0 
L 5113 0 
L 5113 2094 
Q 5113 2597 4934 2840 
Q 4756 3084 4391 3084 
Q 3944 3084 3684 2787 
Q 3425 2491 3425 1978 
L 3425 0 
L 2847 0 
L 2847 2094 
Q 2847 2600 2669 2842 
Q 2491 3084 2119 3084 
Q 1678 3084 1418 2786 
Q 1159 2488 1159 1978 
L 1159 0 
L 581 0 
L 581 3500 
L 1159 3500 
L 1159 2956 
Q 1356 3278 1631 3431 
Q 1906 3584 2284 3584 
Q 2666 3584 2933 3390 
Q 3200 3197 3328 2828 
z
" transform="scale(0.015625)"/>
       <path id="DejaVuSans-6e" d="M 3513 2113 
L 3513 0 
L 2938 0 
L 2938 2094 
Q 2938 2591 2744 2837 
Q 2550 3084 2163 3084 
Q 1697 3084 1428 2787 
Q 1159 2491 1159 1978 
L 1159 0 
L 581 0 
L 581 3500 
L 1159 3500 
L 1159 2956 
Q 1366 3272 1645 3428 
Q 1925 3584 2291 3584 
Q 2894 3584 3203 3211 
Q 3513 2838 3513 2113 
z
" transform="scale(0.015625)"/>
       <path id="DejaVuSans-20" transform="scale(0.015625)"/>
       <path id="DejaVuSans-53" d="M 3425 4513 
L 3425 3897 
Q 3066 4069 2747 4153 
Q 2428 4238 2131 4238 
Q 1616 4238 1336 4038 
Q 1056 3838 1056 3469 
Q 1056 3159 1242 3001 
Q 1428 2844 1947 2747 
L 2328 2669 
Q 3034 2534 3370 2195 
Q 3706 1856 3706 1288 
Q 3706 609 3251 259 
Q 2797 -91 1919 -91 
Q 1588 -91 1214 -16 
Q 841 59 441 206 
L 441 856 
Q 825 641 1194 531 
Q 1563 422 1919 422 
Q 2459 422 2753 634 
Q 3047 847 3047 1241 
Q 3047 1584 2836 1778 
Q 2625 1972 2144 2069 
L 1759 2144 
Q 1053 2284 737 2584 
Q 422 2884 422 3419 
Q 422 4038 858 4394 
Q 1294 4750 2059 4750 
Q 2388 4750 2728 4690 
Q 3069 4631 3425 4513 
z
" transform="scale(0.015625)"/>
       <path id="DejaVuSans-75" d="M 544 1381 
L 544 3500 
L 1119 3500 
L 1119 1403 
Q 1119 906 1312 657 
Q 1506 409 1894 409 
Q 2359 409 2629 706 
Q 2900 1003 2900 1516 
L 2900 3500 
L 3475 3500 
L 3475 0 
L 2900 0 
L 2900 538 
Q 2691 219 2414 64 
Q 2138 -91 1772 -91 
Q 1169 -91 856 284 
Q 544 659 544 1381 
z
M 1991 3584 
L 1991 3584 
z
" transform="scale(0.015625)"/>
      </defs>
      <use xlink:href="#DejaVuSans-41"/>
      <use xlink:href="#DejaVuSans-6d" transform="translate(68.408203 0)"/>
      <use xlink:href="#DejaVuSans-6f" transform="translate(165.820312 0)"/>
      <use xlink:href="#DejaVuSans-6e" transform="translate(227.001953 0)"/>
      <use xlink:href="#DejaVuSans-20" transform="translate(290.380859 0)"/>
      <use xlink:href="#DejaVuSans-53" transform="translate(322.167969 0)"/>
      <use xlink:href="#DejaVuSans-75" transform="translate(385.644531 0)"/>
      <use xlink:href="#DejaVuSans-6c" transform="translate(449.023438 0)"/>
     </g>
    </g>
   </g>
   <g id="text_3">
    <g id="patch_4">
     <path d="M 752.202623 146.099198 
L 788.186373 146.099198 
L 788.186373 130.356698 
L 752.202623 130.356698 
z
" clip-path="url(#pb5629b7e9f)" style="fill: #ffffff; opacity: 0.7"/>
    </g>
    <g clip-path="url(#pb5629b7e9f)">
     <!-- Anduin -->
     <g transform="translate(756.202623 140.435448) scale(0.08 -0.08)">
      <defs>
       <path id="DejaVuSans-69" d="M 603 3500 
L 1178 3500 
L 1178 0 
L 603 0 
L 603 3500 
z
M 603 4863 
L 1178 4863 
L 1178 4134 
L 603 4134 
L 603 4863 
z
" transform="scale(0.015625)"/>
      </defs>
      <use xlink:href="#DejaVuSans-41"/>
      <use xlink:href="#DejaVuSans-6e" transform="translate(68.408203 0)"/>
      <use xlink:href="#DejaVuSans-64" transform="translate(131.787109 0)"/>
      <use xlink:href="#DejaVuSans-75" transform="translate(195.263672 0)"/>
      <use xlink:href="#DejaVuSans-69" transform="translate(258.642578 0)"/>
      <use xlink:href="#DejaVuSans-6e" transform="translate(286.425781 0)"/>
     </g>
    </g>
   </g>
   <g id="text_4">
    <g id="patch_5">
     <path d="M 368.395828 525.043891 
L 412.147078 525.043891 
L 412.147078 509.301391 
L 368.395828 509.301391 
z
" clip-path="url(#pb5629b7e9f)" style="fill: #ffffff; opacity: 0.7"/>
    </g>
    <g clip-path="url(#pb5629b7e9f)">
     <!-- Angband -->
     <g transform="translate(372.395828 519.380141) scale(0.08 -0.08)">
      <defs>
       <path id="DejaVuSans-67" d="M 2906 1791 
Q 2906 2416 2648 2759 
Q 2391 3103 1925 3103 
Q 1463 3103 1205 2759 
Q 947 2416 947 1791 
Q 947 1169 1205 825 
Q 1463 481 1925 481 
Q 2391 481 2648 825 
Q 2906 1169 2906 1791 
z
M 3481 434 
Q 3481 -459 3084 -895 
Q 2688 -1331 1869 -1331 
Q 1566 -1331 1297 -1286 
Q 1028 -1241 775 -1147 
L 775 -588 
Q 1028 -725 1275 -790 
Q 1522 -856 1778 -856 
Q 2344 -856 2625 -561 
Q 2906 -266 2906 331 
L 2906 616 
Q 2728 306 2450 153 
Q 2172 0 1784 0 
Q 1141 0 747 490 
Q 353 981 353 1791 
Q 353 2603 747 3093 
Q 1141 3584 1784 3584 
Q 2172 3584 2450 3431 
Q 2728 3278 2906 2969 
L 2906 3500 
L 3481 3500 
L 3481 434 
z
" transform="scale(0.015625)"/>
       <path id="DejaVuSans-62" d="M 3116 1747 
Q 3116 2381 2855 2742 
Q 2594 3103 2138 3103 
Q 1681 3103 1420 2742 
Q 1159 2381 1159 1747 
Q 1159 1113 1420 752 
Q 1681 391 2138 391 
Q 2594 391 2855 752 
Q 3116 1113 3116 1747 
z
M 1159 2969 
Q 1341 3281 1617 3432 
Q 1894 3584 2278 3584 
Q 2916 3584 3314 3078 
Q 3713 2572 3713 1747 
Q 3713 922 3314 415 
Q 2916 -91 2278 -91 
Q 1894 -91 1617 61 
Q 1341 213 1159 525 
L 1159 0 
L 581 0 
L 581 4863 
L 1159 4863 
L 1159 2969 
z
" transform="scale(0.015625)"/>
      </defs>
      <use xlink:href="#DejaVuSans-41"/>
      <use xlink:href="#DejaVuSans-6e" transform="translate(68.408203 0)"/>
      <use xlink:href="#DejaVuSans-67" transform="translate(131.787109 0)"/>
      <use xlink:href="#DejaVuSans-62" transform="translate(195.263672 0)"/>
      <use xlink:href="#DejaVuSans-61" transform="translate(258.740234 0)"/>
      <use xlink:href="#DejaVuSans-6e" transform="translate(320.019531 0)"/>
      <use xlink:href="#DejaVuSans-64" transform="translate(383.398438 0)"/>
     </g>
    </g>
   </g>
   <g id="text_5">
    <g id="patch_6">
     <path d="M 315.684736 87.196884 
L 355.289736 87.196884 
L 355.289736 71.454384 
L 315.684736 71.454384 
z
" clip-path="url(#pb5629b7e9f)" style="fill: #ffffff; opacity: 0.7"/>
    </g>
    <g clip-path="url(#pb5629b7e9f)">
     <!-- Angmar -->
     <g transform="translate(319.684736 81.533134) scale(0.08 -0.08)">
      <use xlink:href="#DejaVuSans-41"/>
      <use xlink:href="#DejaVuSans-6e" transform="translate(68.408203 0)"/>
      <use xlink:href="#DejaVuSans-67" transform="translate(131.787109 0)"/>
      <use xlink:href="#DejaVuSans-6d" transform="translate(195.263672 0)"/>
      <use xlink:href="#DejaVuSans-61" transform="translate(292.675781 0)"/>
      <use xlink:href="#DejaVuSans-72" transform="translate(353.955078 0)"/>
     </g>
    </g>
   </g>
   <g id="text_6">
    <g id="patch_7">
     <path d="M 722.648167 276.664027 
L 756.756917 276.664027 
L 756.756917 260.921527 
L 722.648167 260.921527 
z
" clip-path="url(#pb5629b7e9f)" style="fill: #ffffff; opacity: 0.7"/>
    </g>
    <g clip-path="url(#pb5629b7e9f)">
     <!-- Archet -->
     <g transform="translate(726.648167 271.000277) scale(0.08 -0.08)">
      <defs>
       <path id="DejaVuSans-63" d="M 3122 3366 
L 3122 2828 
Q 2878 2963 2633 3030 
Q 2388 3097 2138 3097 
Q 1578 3097 1268 2742 
Q 959 2388 959 1747 
Q 959 1106 1268 751 
Q 1578 397 2138 397 
Q 2388 397 2633 464 
Q 2878 531 3122 666 
L 3122 134 
Q 2881 22 2623 -34 
Q 2366 -91 2075 -91 
Q 1284 -91 818 406 
Q 353 903 353 1747 
Q 353 2603 823 3093 
Q 1294 3584 2113 3584 
Q 2378 3584 2631 3529 
Q 2884 3475 3122 3366 
z
" transform="scale(0.015625)"/>
       <path id="DejaVuSans-68" d="M 3513 2113 
L 3513 0 
L 2938 0 
L 2938 2094 
Q 2938 2591 2744 2837 
Q 2550 3084 2163 3084 
Q 1697 3084 1428 2787 
Q 1159 2491 1159 1978 
L 1159 0 
L 581 0 
L 581 4863 
L 1159 4863 
L 1159 2956 
Q 1366 3272 1645 3428 
Q 1925 3584 2291 3584 
Q 2894 3584 3203 3211 
Q 3513 2838 3513 2113 
z
" transform="scale(0.015625)"/>
       <path id="DejaVuSans-65" d="M 3597 1894 
L 3597 1613 
L 953 1613 
Q 991 1019 1311 708 
Q 1631 397 2203 397 
Q 2534 397 2845 478 
Q 3156 559 3463 722 
L 3463 178 
Q 3153 47 2828 -22 
Q 2503 -91 2169 -91 
Q 1331 -91 842 396 
Q 353 884 353 1716 
Q 353 2575 817 3079 
Q 1281 3584 2069 3584 
Q 2775 3584 3186 3129 
Q 3597 2675 3597 1894 
z
M 3022 2063 
Q 3016 2534 2758 2815 
Q 2500 3097 2075 3097 
Q 1594 3097 1305 2825 
Q 1016 2553 972 2059 
L 3022 2063 
z
" transform="scale(0.015625)"/>
       <path id="DejaVuSans-74" d="M 1172 4494 
L 1172 3500 
L 2356 3500 
L 2356 3053 
L 1172 3053 
L 1172 1153 
Q 1172 725 1289 603 
Q 1406 481 1766 481 
L 2356 481 
L 2356 0 
L 1766 0 
Q 1100 0 847 248 
Q 594 497 594 1153 
L 594 3053 
L 172 3053 
L 172 3500 
L 594 3500 
L 594 4494 
L 1172 4494 
z
" transform="scale(0.015625)"/>
      </defs>
      <use xlink:href="#DejaVuSans-41"/>
      <use xlink:href="#DejaVuSans-72" transform="translate(68.408203 0)"/>
      <use xlink:href="#DejaVuSans-63" transform="translate(107.271484 0)"/>
      <use xlink:href="#DejaVuSans-68" transform="translate(162.251953 0)"/>
      <use xlink:href="#DejaVuSans-65" transform="translate(225.630859 0)"/>
      <use xlink:href="#DejaVuSans-74" transform="translate(287.154297 0)"/>
     </g>
    </g>
   </g>
   <g id="text_7">
    <g id="patch_8">
     <path d="M 275.590667 190.173587 
L 305.465667 190.173587 
L 305.465667 174.431087 
L 275.590667 174.431087 
z
" clip-path="url(#pb5629b7e9f)" style="fill: #ffffff; opacity: 0.7"/>
    </g>
    <g clip-path="url(#pb5629b7e9f)">
     <!-- Arnor -->
     <g transform="translate(279.590667 184.509837) scale(0.08 -0.08)">
      <use xlink:href="#DejaVuSans-41"/>
      <use xlink:href="#DejaVuSans-72" transform="translate(68.408203 0)"/>
      <use xlink:href="#DejaVuSans-6e" transform="translate(107.771484 0)"/>
      <use xlink:href="#DejaVuSans-6f" transform="translate(171.150391 0)"/>
      <use xlink:href="#DejaVuSans-72" transform="translate(232.332031 0)"/>
     </g>
    </g>
   </g>
   <g id="text_8">
    <g id="patch_9">
     <path d="M 867.080316 612.838799 
L 906.725316 612.838799 
L 906.725316 597.096299 
L 867.080316 597.096299 
z
" clip-path="url(#pb5629b7e9f)" style="fill: #ffffff; opacity: 0.7"/>
    </g>
    <g clip-path="url(#pb5629b7e9f)">
     <!-- Belfalas -->
     <g transform="translate(871.080316 607.175049) scale(0.08 -0.08)">
      <defs>
       <path id="DejaVuSans-42" d="M 1259 2228 
L 1259 519 
L 2272 519 
Q 2781 519 3026 730 
Q 3272 941 3272 1375 
Q 3272 1813 3026 2020 
Q 2781 2228 2272 2228 
L 1259 2228 
z
M 1259 4147 
L 1259 2741 
L 2194 2741 
Q 2656 2741 2882 2914 
Q 3109 3088 3109 3444 
Q 3109 3797 2882 3972 
Q 2656 4147 2194 4147 
L 1259 4147 
z
M 628 4666 
L 2241 4666 
Q 2963 4666 3353 4366 
Q 3744 4066 3744 3513 
Q 3744 3084 3544 2831 
Q 3344 2578 2956 2516 
Q 3422 2416 3680 2098 
Q 3938 1781 3938 1306 
Q 3938 681 3513 340 
Q 3088 0 2303 0 
L 628 0 
L 628 4666 
z
" transform="scale(0.015625)"/>
       <path id="DejaVuSans-73" d="M 2834 3397 
L 2834 2853 
Q 2591 2978 2328 3040 
Q 2066 3103 1784 3103 
Q 1356 3103 1142 2972 
Q 928 2841 928 2578 
Q 928 2378 1081 2264 
Q 1234 2150 1697 2047 
L 1894 2003 
Q 2506 1872 2764 1633 
Q 3022 1394 3022 966 
Q 3022 478 2636 193 
Q 2250 -91 1575 -91 
Q 1294 -91 989 -36 
Q 684 19 347 128 
L 347 722 
Q 666 556 975 473 
Q 1284 391 1588 391 
Q 1994 391 2212 530 
Q 2431 669 2431 922 
Q 2431 1156 2273 1281 
Q 2116 1406 1581 1522 
L 1381 1569 
Q 847 1681 609 1914 
Q 372 2147 372 2553 
Q 372 3047 722 3315 
Q 1072 3584 1716 3584 
Q 2034 3584 2315 3537 
Q 2597 3491 2834 3397 
z
" transform="scale(0.015625)"/>
      </defs>
      <use xlink:href="#DejaVuSans-42"/>
      <use xlink:href="#DejaVuSans-65" transform="translate(68.603516 0)"/>
      <use xlink:href="#DejaVuSans-6c" transform="translate(130.126953 0)"/>
      <use xlink:href="#DejaVuSans-66" transform="translate(157.910156 0)"/>
      <use xlink:href="#DejaVuSans-61" transform="translate(193.115234 0)"/>
      <use xlink:href="#DejaVuSans-6c" transform="translate(254.394531 0)"/>
      <use xlink:href="#DejaVuSans-61" transform="translate(282.177734 0)"/>
      <use xlink:href="#DejaVuSans-73" transform="translate(343.457031 0)"/>
     </g>
    </g>
   </g>
   <g id="text_9">
    <g id="patch_10">
     <path d="M 646.428758 275.845264 
L 715.532508 275.845264 
L 715.532508 260.102764 
L 646.428758 260.102764 
z
" clip-path="url(#pb5629b7e9f)" style="fill: #ffffff; opacity: 0.7"/>
    </g>
    <g clip-path="url(#pb5629b7e9f)">
     <!-- Bolsón Cerrado -->
     <g transform="translate(650.428758 270.181514) scale(0.08 -0.08)">
      <defs>
       <path id="DejaVuSans-f3" d="M 1959 3097 
Q 1497 3097 1228 2736 
Q 959 2375 959 1747 
Q 959 1119 1226 758 
Q 1494 397 1959 397 
Q 2419 397 2687 759 
Q 2956 1122 2956 1747 
Q 2956 2369 2687 2733 
Q 2419 3097 1959 3097 
z
M 1959 3584 
Q 2709 3584 3137 3096 
Q 3566 2609 3566 1747 
Q 3566 888 3137 398 
Q 2709 -91 1959 -91 
Q 1206 -91 779 398 
Q 353 888 353 1747 
Q 353 2609 779 3096 
Q 1206 3584 1959 3584 
z
M 2394 5119 
L 3016 5119 
L 1998 3944 
L 1519 3944 
L 2394 5119 
z
" transform="scale(0.015625)"/>
       <path id="DejaVuSans-43" d="M 4122 4306 
L 4122 3641 
Q 3803 3938 3442 4084 
Q 3081 4231 2675 4231 
Q 1875 4231 1450 3742 
Q 1025 3253 1025 2328 
Q 1025 1406 1450 917 
Q 1875 428 2675 428 
Q 3081 428 3442 575 
Q 3803 722 4122 1019 
L 4122 359 
Q 3791 134 3420 21 
Q 3050 -91 2638 -91 
Q 1578 -91 968 557 
Q 359 1206 359 2328 
Q 359 3453 968 4101 
Q 1578 4750 2638 4750 
Q 3056 4750 3426 4639 
Q 3797 4528 4122 4306 
z
" transform="scale(0.015625)"/>
      </defs>
      <use xlink:href="#DejaVuSans-42"/>
      <use xlink:href="#DejaVuSans-6f" transform="translate(68.603516 0)"/>
      <use xlink:href="#DejaVuSans-6c" transform="translate(129.785156 0)"/>
      <use xlink:href="#DejaVuSans-73" transform="translate(157.568359 0)"/>
      <use xlink:href="#DejaVuSans-f3" transform="translate(209.667969 0)"/>
      <use xlink:href="#DejaVuSans-6e" transform="translate(270.849609 0)"/>
      <use xlink:href="#DejaVuSans-20" transform="translate(334.228516 0)"/>
      <use xlink:href="#DejaVuSans-43" transform="translate(366.015625 0)"/>
      <use xlink:href="#DejaVuSans-65" transform="translate(435.839844 0)"/>
      <use xlink:href="#DejaVuSans-72" transform="translate(497.363281 0)"/>
      <use xlink:href="#DejaVuSans-72" transform="translate(536.726562 0)"/>
      <use xlink:href="#DejaVuSans-61" transform="translate(577.839844 0)"/>
      <use xlink:href="#DejaVuSans-64" transform="translate(639.119141 0)"/>
      <use xlink:href="#DejaVuSans-6f" transform="translate(702.595703 0)"/>
     </g>
    </g>
   </g>
   <g id="text_10">
    <g id="patch_11">
     <path d="M 647.559587 347.025543 
L 722.415837 347.025543 
L 722.415837 331.283043 
L 647.559587 331.283043 
z
" clip-path="url(#pb5629b7e9f)" style="fill: #ffffff; opacity: 0.7"/>
    </g>
    <g clip-path="url(#pb5629b7e9f)">
     <!-- Bolsón de Tirada -->
     <g transform="translate(651.559587 341.361793) scale(0.08 -0.08)">
      <defs>
       <path id="DejaVuSans-54" d="M -19 4666 
L 3928 4666 
L 3928 4134 
L 2272 4134 
L 2272 0 
L 1638 0 
L 1638 4134 
L -19 4134 
L -19 4666 
z
" transform="scale(0.015625)"/>
      </defs>
      <use xlink:href="#DejaVuSans-42"/>
      <use xlink:href="#DejaVuSans-6f" transform="translate(68.603516 0)"/>
      <use xlink:href="#DejaVuSans-6c" transform="translate(129.785156 0)"/>
      <use xlink:href="#DejaVuSans-73" transform="translate(157.568359 0)"/>
      <use xlink:href="#DejaVuSans-f3" transform="translate(209.667969 0)"/>
      <use xlink:href="#DejaVuSans-6e" transform="translate(270.849609 0)"/>
      <use xlink:href="#DejaVuSans-20" transform="translate(334.228516 0)"/>
      <use xlink:href="#DejaVuSans-64" transform="translate(366.015625 0)"/>
      <use xlink:href="#DejaVuSans-65" transform="translate(429.492188 0)"/>
      <use xlink:href="#DejaVuSans-20" transform="translate(491.015625 0)"/>
      <use xlink:href="#DejaVuSans-54" transform="translate(522.802734 0)"/>
      <use xlink:href="#DejaVuSans-69" transform="translate(580.761719 0)"/>
      <use xlink:href="#DejaVuSans-72" transform="translate(608.544922 0)"/>
      <use xlink:href="#DejaVuSans-61" transform="translate(649.658203 0)"/>
      <use xlink:href="#DejaVuSans-64" transform="translate(710.9375 0)"/>
      <use xlink:href="#DejaVuSans-61" transform="translate(774.414062 0)"/>
     </g>
    </g>
   </g>
   <g id="text_11">
    <g id="patch_12">
     <path d="M 526.856139 614.923867 
L 598.843639 614.923867 
L 598.843639 599.181367 
L 526.856139 599.181367 
z
" clip-path="url(#pb5629b7e9f)" style="fill: #ffffff; opacity: 0.7"/>
    </g>
    <g clip-path="url(#pb5629b7e9f)">
     <!-- Bosque Cerrado -->
     <g transform="translate(530.856139 609.260117) scale(0.08 -0.08)">
      <defs>
       <path id="DejaVuSans-71" d="M 947 1747 
Q 947 1113 1208 752 
Q 1469 391 1925 391 
Q 2381 391 2643 752 
Q 2906 1113 2906 1747 
Q 2906 2381 2643 2742 
Q 2381 3103 1925 3103 
Q 1469 3103 1208 2742 
Q 947 2381 947 1747 
z
M 2906 525 
Q 2725 213 2448 61 
Q 2172 -91 1784 -91 
Q 1150 -91 751 415 
Q 353 922 353 1747 
Q 353 2572 751 3078 
Q 1150 3584 1784 3584 
Q 2172 3584 2448 3432 
Q 2725 3281 2906 2969 
L 2906 3500 
L 3481 3500 
L 3481 -1331 
L 2906 -1331 
L 2906 525 
z
" transform="scale(0.015625)"/>
      </defs>
      <use xlink:href="#DejaVuSans-42"/>
      <use xlink:href="#DejaVuSans-6f" transform="translate(68.603516 0)"/>
      <use xlink:href="#DejaVuSans-73" transform="translate(129.785156 0)"/>
      <use xlink:href="#DejaVuSans-71" transform="translate(181.884766 0)"/>
      <use xlink:href="#DejaVuSans-75" transform="translate(245.361328 0)"/>
      <use xlink:href="#DejaVuSans-65" transform="translate(308.740234 0)"/>
      <use xlink:href="#DejaVuSans-20" transform="translate(370.263672 0)"/>
      <use xlink:href="#DejaVuSans-43" transform="translate(402.050781 0)"/>
      <use xlink:href="#DejaVuSans-65" transform="translate(471.875 0)"/>
      <use xlink:href="#DejaVuSans-72" transform="translate(533.398438 0)"/>
      <use xlink:href="#DejaVuSans-72" transform="translate(572.761719 0)"/>
      <use xlink:href="#DejaVuSans-61" transform="translate(613.875 0)"/>
      <use xlink:href="#DejaVuSans-64" transform="translate(675.154297 0)"/>
      <use xlink:href="#DejaVuSans-6f" transform="translate(738.630859 0)"/>
     </g>
    </g>
   </g>
   <g id="text_12">
    <g id="patch_13">
     <path d="M 665.240813 214.406869 
L 724.960813 214.406869 
L 724.960813 198.664369 
L 665.240813 198.664369 
z
" clip-path="url(#pb5629b7e9f)" style="fill: #ffffff; opacity: 0.7"/>
    </g>
    <g clip-path="url(#pb5629b7e9f)">
     <!-- Bosque Viejo -->
     <g transform="translate(669.240813 208.743119) scale(0.08 -0.08)">
      <defs>
       <path id="DejaVuSans-56" d="M 1831 0 
L 50 4666 
L 709 4666 
L 2188 738 
L 3669 4666 
L 4325 4666 
L 2547 0 
L 1831 0 
z
" transform="scale(0.015625)"/>
       <path id="DejaVuSans-6a" d="M 603 3500 
L 1178 3500 
L 1178 -63 
Q 1178 -731 923 -1031 
Q 669 -1331 103 -1331 
L -116 -1331 
L -116 -844 
L 38 -844 
Q 366 -844 484 -692 
Q 603 -541 603 -63 
L 603 3500 
z
M 603 4863 
L 1178 4863 
L 1178 4134 
L 603 4134 
L 603 4863 
z
" transform="scale(0.015625)"/>
      </defs>
      <use xlink:href="#DejaVuSans-42"/>
      <use xlink:href="#DejaVuSans-6f" transform="translate(68.603516 0)"/>
      <use xlink:href="#DejaVuSans-73" transform="translate(129.785156 0)"/>
      <use xlink:href="#DejaVuSans-71" transform="translate(181.884766 0)"/>
      <use xlink:href="#DejaVuSans-75" transform="translate(245.361328 0)"/>
      <use xlink:href="#DejaVuSans-65" transform="translate(308.740234 0)"/>
      <use xlink:href="#DejaVuSans-20" transform="translate(370.263672 0)"/>
      <use xlink:href="#DejaVuSans-56" transform="translate(402.050781 0)"/>
      <use xlink:href="#DejaVuSans-69" transform="translate(468.208984 0)"/>
      <use xlink:href="#DejaVuSans-65" transform="translate(495.992188 0)"/>
      <use xlink:href="#DejaVuSans-6a" transform="translate(557.515625 0)"/>
      <use xlink:href="#DejaVuSans-6f" transform="translate(585.298828 0)"/>
     </g>
    </g>
   </g>
   <g id="text_13">
    <g id="patch_14">
     <path d="M 655.660286 275.720368 
L 706.634036 275.720368 
L 706.634036 259.977868 
L 655.660286 259.977868 
z
" clip-path="url(#pb5629b7e9f)" style="fill: #ffffff; opacity: 0.7"/>
    </g>
    <g clip-path="url(#pb5629b7e9f)">
     <!-- Brandivino -->
     <g transform="translate(659.660286 270.056618) scale(0.08 -0.08)">
      <defs>
       <path id="DejaVuSans-76" d="M 191 3500 
L 800 3500 
L 1894 563 
L 2988 3500 
L 3597 3500 
L 2284 0 
L 1503 0 
L 191 3500 
z
" transform="scale(0.015625)"/>
      </defs>
      <use xlink:href="#DejaVuSans-42"/>
      <use xlink:href="#DejaVuSans-72" transform="translate(68.603516 0)"/>
      <use xlink:href="#DejaVuSans-61" transform="translate(109.716797 0)"/>
      <use xlink:href="#DejaVuSans-6e" transform="translate(170.996094 0)"/>
      <use xlink:href="#DejaVuSans-64" transform="translate(234.375 0)"/>
      <use xlink:href="#DejaVuSans-69" transform="translate(297.851562 0)"/>
      <use xlink:href="#DejaVuSans-76" transform="translate(325.634766 0)"/>
      <use xlink:href="#DejaVuSans-69" transform="translate(384.814453 0)"/>
      <use xlink:href="#DejaVuSans-6e" transform="translate(412.597656 0)"/>
      <use xlink:href="#DejaVuSans-6f" transform="translate(475.976562 0)"/>
     </g>
    </g>
   </g>
   <g id="text_14">
    <g id="patch_15">
     <path d="M 675.579257 274.367329 
L 702.021757 274.367329 
L 702.021757 258.624829 
L 675.579257 258.624829 
z
" clip-path="url(#pb5629b7e9f)" style="fill: #ffffff; opacity: 0.7"/>
    </g>
    <g clip-path="url(#pb5629b7e9f)">
     <!-- Bree -->
     <g transform="translate(679.579257 268.703579) scale(0.08 -0.08)">
      <use xlink:href="#DejaVuSans-42"/>
      <use xlink:href="#DejaVuSans-72" transform="translate(68.603516 0)"/>
      <use xlink:href="#DejaVuSans-65" transform="translate(107.466797 0)"/>
      <use xlink:href="#DejaVuSans-65" transform="translate(168.990234 0)"/>
     </g>
    </g>
   </g>
   <g id="text_15">
    <g id="patch_16">
     <path d="M 743.787067 126.233804 
L 816.439567 126.233804 
L 816.439567 110.491304 
L 743.787067 110.491304 
z
" clip-path="url(#pb5629b7e9f)" style="fill: #ffffff; opacity: 0.7"/>
    </g>
    <g clip-path="url(#pb5629b7e9f)">
     <!-- Campos Gladios -->
     <g transform="translate(747.787067 120.570054) scale(0.08 -0.08)">
      <defs>
       <path id="DejaVuSans-70" d="M 1159 525 
L 1159 -1331 
L 581 -1331 
L 581 3500 
L 1159 3500 
L 1159 2969 
Q 1341 3281 1617 3432 
Q 1894 3584 2278 3584 
Q 2916 3584 3314 3078 
Q 3713 2572 3713 1747 
Q 3713 922 3314 415 
Q 2916 -91 2278 -91 
Q 1894 -91 1617 61 
Q 1341 213 1159 525 
z
M 3116 1747 
Q 3116 2381 2855 2742 
Q 2594 3103 2138 3103 
Q 1681 3103 1420 2742 
Q 1159 2381 1159 1747 
Q 1159 1113 1420 752 
Q 1681 391 2138 391 
Q 2594 391 2855 752 
Q 3116 1113 3116 1747 
z
" transform="scale(0.015625)"/>
       <path id="DejaVuSans-47" d="M 3809 666 
L 3809 1919 
L 2778 1919 
L 2778 2438 
L 4434 2438 
L 4434 434 
Q 4069 175 3628 42 
Q 3188 -91 2688 -91 
Q 1594 -91 976 548 
Q 359 1188 359 2328 
Q 359 3472 976 4111 
Q 1594 4750 2688 4750 
Q 3144 4750 3555 4637 
Q 3966 4525 4313 4306 
L 4313 3634 
Q 3963 3931 3569 4081 
Q 3175 4231 2741 4231 
Q 1884 4231 1454 3753 
Q 1025 3275 1025 2328 
Q 1025 1384 1454 906 
Q 1884 428 2741 428 
Q 3075 428 3337 486 
Q 3600 544 3809 666 
z
" transform="scale(0.015625)"/>
      </defs>
      <use xlink:href="#DejaVuSans-43"/>
      <use xlink:href="#DejaVuSans-61" transform="translate(69.824219 0)"/>
      <use xlink:href="#DejaVuSans-6d" transform="translate(131.103516 0)"/>
      <use xlink:href="#DejaVuSans-70" transform="translate(228.515625 0)"/>
      <use xlink:href="#DejaVuSans-6f" transform="translate(291.992188 0)"/>
      <use xlink:href="#DejaVuSans-73" transform="translate(353.173828 0)"/>
      <use xlink:href="#DejaVuSans-20" transform="translate(405.273438 0)"/>
      <use xlink:href="#DejaVuSans-47" transform="translate(437.060547 0)"/>
      <use xlink:href="#DejaVuSans-6c" transform="translate(514.550781 0)"/>
      <use xlink:href="#DejaVuSans-61" transform="translate(542.333984 0)"/>
      <use xlink:href="#DejaVuSans-64" transform="translate(603.613281 0)"/>
      <use xlink:href="#DejaVuSans-69" transform="translate(667.089844 0)"/>
      <use xlink:href="#DejaVuSans-6f" transform="translate(694.873047 0)"/>
      <use xlink:href="#DejaVuSans-73" transform="translate(756.054688 0)"/>
     </g>
    </g>
   </g>
   <g id="text_16">
    <g id="patch_17">
     <path d="M 489.302029 143.455567 
L 559.413279 143.455567 
L 559.413279 127.713067 
L 489.302029 127.713067 
z
" clip-path="url(#pb5629b7e9f)" style="fill: #ffffff; opacity: 0.7"/>
    </g>
    <g clip-path="url(#pb5629b7e9f)">
     <!-- Cavada Grande -->
     <g transform="translate(493.302029 137.791817) scale(0.08 -0.08)">
      <use xlink:href="#DejaVuSans-43"/>
      <use xlink:href="#DejaVuSans-61" transform="translate(69.824219 0)"/>
      <use xlink:href="#DejaVuSans-76" transform="translate(131.103516 0)"/>
      <use xlink:href="#DejaVuSans-61" transform="translate(190.283203 0)"/>
      <use xlink:href="#DejaVuSans-64" transform="translate(251.5625 0)"/>
      <use xlink:href="#DejaVuSans-61" transform="translate(315.039062 0)"/>
      <use xlink:href="#DejaVuSans-20" transform="translate(376.318359 0)"/>
      <use xlink:href="#DejaVuSans-47" transform="translate(408.105469 0)"/>
      <use xlink:href="#DejaVuSans-72" transform="translate(485.595703 0)"/>
      <use xlink:href="#DejaVuSans-61" transform="translate(526.708984 0)"/>
      <use xlink:href="#DejaVuSans-6e" transform="translate(587.988281 0)"/>
      <use xlink:href="#DejaVuSans-64" transform="translate(651.367188 0)"/>
      <use xlink:href="#DejaVuSans-65" transform="translate(714.84375 0)"/>
     </g>
    </g>
   </g>
   <g id="text_17">
    <g id="patch_18">
     <path d="M 444.173218 577.597327 
L 482.664468 577.597327 
L 482.664468 561.854827 
L 444.173218 561.854827 
z
" clip-path="url(#pb5629b7e9f)" style="fill: #ffffff; opacity: 0.7"/>
    </g>
    <g clip-path="url(#pb5629b7e9f)">
     <!-- Cepeda -->
     <g transform="translate(448.173218 571.933577) scale(0.08 -0.08)">
      <use xlink:href="#DejaVuSans-43"/>
      <use xlink:href="#DejaVuSans-65" transform="translate(69.824219 0)"/>
      <use xlink:href="#DejaVuSans-70" transform="translate(131.347656 0)"/>
      <use xlink:href="#DejaVuSans-65" transform="translate(194.824219 0)"/>
      <use xlink:href="#DejaVuSans-64" transform="translate(256.347656 0)"/>
      <use xlink:href="#DejaVuSans-61" transform="translate(319.824219 0)"/>
     </g>
    </g>
   </g>
   <g id="text_18">
    <g id="patch_19">
     <path d="M 722.521838 256.146399 
L 749.236838 256.146399 
L 749.236838 240.403899 
L 722.521838 240.403899 
z
" clip-path="url(#pb5629b7e9f)" style="fill: #ffffff; opacity: 0.7"/>
    </g>
    <g clip-path="url(#pb5629b7e9f)">
     <!-- Chet -->
     <g transform="translate(726.521838 250.482649) scale(0.08 -0.08)">
      <use xlink:href="#DejaVuSans-43"/>
      <use xlink:href="#DejaVuSans-68" transform="translate(69.824219 0)"/>
      <use xlink:href="#DejaVuSans-65" transform="translate(133.203125 0)"/>
      <use xlink:href="#DejaVuSans-74" transform="translate(194.726562 0)"/>
     </g>
    </g>
   </g>
   <g id="text_19">
    <g id="patch_20">
     <path d="M 521.7349 652.2851 
L 588.43615 652.2851 
L 588.43615 636.5426 
L 521.7349 636.5426 
z
" clip-path="url(#pb5629b7e9f)" style="fill: #ffffff; opacity: 0.7"/>
    </g>
    <g clip-path="url(#pb5629b7e9f)">
     <!-- Colinas Verdes -->
     <g transform="translate(525.7349 646.62135) scale(0.08 -0.08)">
      <use xlink:href="#DejaVuSans-43"/>
      <use xlink:href="#DejaVuSans-6f" transform="translate(69.824219 0)"/>
      <use xlink:href="#DejaVuSans-6c" transform="translate(131.005859 0)"/>
      <use xlink:href="#DejaVuSans-69" transform="translate(158.789062 0)"/>
      <use xlink:href="#DejaVuSans-6e" transform="translate(186.572266 0)"/>
      <use xlink:href="#DejaVuSans-61" transform="translate(249.951172 0)"/>
      <use xlink:href="#DejaVuSans-73" transform="translate(311.230469 0)"/>
      <use xlink:href="#DejaVuSans-20" transform="translate(363.330078 0)"/>
      <use xlink:href="#DejaVuSans-56" transform="translate(395.117188 0)"/>
      <use xlink:href="#DejaVuSans-65" transform="translate(455.775391 0)"/>
      <use xlink:href="#DejaVuSans-72" transform="translate(517.298828 0)"/>
      <use xlink:href="#DejaVuSans-64" transform="translate(556.662109 0)"/>
      <use xlink:href="#DejaVuSans-65" transform="translate(620.138672 0)"/>
      <use xlink:href="#DejaVuSans-73" transform="translate(681.662109 0)"/>
     </g>
    </g>
   </g>
   <g id="text_20">
    <g id="patch_21">
     <path d="M 626.481653 317.459898 
L 664.517903 317.459898 
L 664.517903 301.717398 
L 626.481653 301.717398 
z
" clip-path="url(#pb5629b7e9f)" style="fill: #ffffff; opacity: 0.7"/>
    </g>
    <g clip-path="url(#pb5629b7e9f)">
     <!-- Cricava -->
     <g transform="translate(630.481653 311.796148) scale(0.08 -0.08)">
      <use xlink:href="#DejaVuSans-43"/>
      <use xlink:href="#DejaVuSans-72" transform="translate(69.824219 0)"/>
      <use xlink:href="#DejaVuSans-69" transform="translate(110.9375 0)"/>
      <use xlink:href="#DejaVuSans-63" transform="translate(138.720703 0)"/>
      <use xlink:href="#DejaVuSans-61" transform="translate(193.701172 0)"/>
      <use xlink:href="#DejaVuSans-76" transform="translate(254.980469 0)"/>
      <use xlink:href="#DejaVuSans-61" transform="translate(314.160156 0)"/>
     </g>
    </g>
   </g>
   <g id="text_21">
    <g id="patch_22">
     <path d="M 743.40831 359.112694 
L 820.83581 359.112694 
L 820.83581 343.370194 
L 743.40831 343.370194 
z
" clip-path="url(#pb5629b7e9f)" style="fill: #ffffff; opacity: 0.7"/>
    </g>
    <g clip-path="url(#pb5629b7e9f)">
     <!-- Cuaderna del Sur -->
     <g transform="translate(747.40831 353.448944) scale(0.08 -0.08)">
      <use xlink:href="#DejaVuSans-43"/>
      <use xlink:href="#DejaVuSans-75" transform="translate(69.824219 0)"/>
      <use xlink:href="#DejaVuSans-61" transform="translate(133.203125 0)"/>
      <use xlink:href="#DejaVuSans-64" transform="translate(194.482422 0)"/>
      <use xlink:href="#DejaVuSans-65" transform="translate(257.958984 0)"/>
      <use xlink:href="#DejaVuSans-72" transform="translate(319.482422 0)"/>
      <use xlink:href="#DejaVuSans-6e" transform="translate(358.845703 0)"/>
      <use xlink:href="#DejaVuSans-61" transform="translate(422.224609 0)"/>
      <use xlink:href="#DejaVuSans-20" transform="translate(483.503906 0)"/>
      <use xlink:href="#DejaVuSans-64" transform="translate(515.291016 0)"/>
      <use xlink:href="#DejaVuSans-65" transform="translate(578.767578 0)"/>
      <use xlink:href="#DejaVuSans-6c" transform="translate(640.291016 0)"/>
      <use xlink:href="#DejaVuSans-20" transform="translate(668.074219 0)"/>
      <use xlink:href="#DejaVuSans-53" transform="translate(699.861328 0)"/>
      <use xlink:href="#DejaVuSans-75" transform="translate(763.337891 0)"/>
      <use xlink:href="#DejaVuSans-72" transform="translate(826.716797 0)"/>
     </g>
    </g>
   </g>
   <g id="text_22">
    <g id="patch_23">
     <path d="M 535.843883 181.031898 
L 577.102633 181.031898 
L 577.102633 165.289398 
L 535.843883 165.289398 
z
" clip-path="url(#pb5629b7e9f)" style="fill: #ffffff; opacity: 0.7"/>
    </g>
    <g clip-path="url(#pb5629b7e9f)">
     <!-- Delagua -->
     <g transform="translate(539.843883 175.368148) scale(0.08 -0.08)">
      <defs>
       <path id="DejaVuSans-44" d="M 1259 4147 
L 1259 519 
L 2022 519 
Q 2988 519 3436 956 
Q 3884 1394 3884 2338 
Q 3884 3275 3436 3711 
Q 2988 4147 2022 4147 
L 1259 4147 
z
M 628 4666 
L 1925 4666 
Q 3281 4666 3915 4102 
Q 4550 3538 4550 2338 
Q 4550 1131 3912 565 
Q 3275 0 1925 0 
L 628 0 
L 628 4666 
z
" transform="scale(0.015625)"/>
      </defs>
      <use xlink:href="#DejaVuSans-44"/>
      <use xlink:href="#DejaVuSans-65" transform="translate(77.001953 0)"/>
      <use xlink:href="#DejaVuSans-6c" transform="translate(138.525391 0)"/>
      <use xlink:href="#DejaVuSans-61" transform="translate(166.308594 0)"/>
      <use xlink:href="#DejaVuSans-67" transform="translate(227.587891 0)"/>
      <use xlink:href="#DejaVuSans-75" transform="translate(291.064453 0)"/>
      <use xlink:href="#DejaVuSans-61" transform="translate(354.443359 0)"/>
     </g>
    </g>
   </g>
   <g id="text_23">
    <g id="patch_24">
     <path d="M 689.138364 304.311131 
L 731.114614 304.311131 
L 731.114614 288.568631 
L 689.138364 288.568631 
z
" clip-path="url(#pb5629b7e9f)" style="fill: #ffffff; opacity: 0.7"/>
    </g>
    <g clip-path="url(#pb5629b7e9f)">
     <!-- El Poney -->
     <g transform="translate(693.138364 298.647381) scale(0.08 -0.08)">
      <defs>
       <path id="DejaVuSans-45" d="M 628 4666 
L 3578 4666 
L 3578 4134 
L 1259 4134 
L 1259 2753 
L 3481 2753 
L 3481 2222 
L 1259 2222 
L 1259 531 
L 3634 531 
L 3634 0 
L 628 0 
L 628 4666 
z
" transform="scale(0.015625)"/>
       <path id="DejaVuSans-50" d="M 1259 4147 
L 1259 2394 
L 2053 2394 
Q 2494 2394 2734 2622 
Q 2975 2850 2975 3272 
Q 2975 3691 2734 3919 
Q 2494 4147 2053 4147 
L 1259 4147 
z
M 628 4666 
L 2053 4666 
Q 2838 4666 3239 4311 
Q 3641 3956 3641 3272 
Q 3641 2581 3239 2228 
Q 2838 1875 2053 1875 
L 1259 1875 
L 1259 0 
L 628 0 
L 628 4666 
z
" transform="scale(0.015625)"/>
       <path id="DejaVuSans-79" d="M 2059 -325 
Q 1816 -950 1584 -1140 
Q 1353 -1331 966 -1331 
L 506 -1331 
L 506 -850 
L 844 -850 
Q 1081 -850 1212 -737 
Q 1344 -625 1503 -206 
L 1606 56 
L 191 3500 
L 800 3500 
L 1894 763 
L 2988 3500 
L 3597 3500 
L 2059 -325 
z
" transform="scale(0.015625)"/>
      </defs>
      <use xlink:href="#DejaVuSans-45"/>
      <use xlink:href="#DejaVuSans-6c" transform="translate(63.183594 0)"/>
      <use xlink:href="#DejaVuSans-20" transform="translate(90.966797 0)"/>
      <use xlink:href="#DejaVuSans-50" transform="translate(122.753906 0)"/>
      <use xlink:href="#DejaVuSans-6f" transform="translate(179.431641 0)"/>
      <use xlink:href="#DejaVuSans-6e" transform="translate(240.613281 0)"/>
      <use xlink:href="#DejaVuSans-65" transform="translate(303.992188 0)"/>
      <use xlink:href="#DejaVuSans-79" transform="translate(365.515625 0)"/>
     </g>
    </g>
   </g>
   <g id="text_24">
    <g id="patch_25">
     <path d="M 643.995674 662.318407 
L 690.863174 662.318407 
L 690.863174 646.575907 
L 643.995674 646.575907 
z
" clip-path="url(#pb5629b7e9f)" style="fill: #ffffff; opacity: 0.7"/>
    </g>
    <g clip-path="url(#pb5629b7e9f)">
     <!-- Esgalduin -->
     <g transform="translate(647.995674 656.654657) scale(0.08 -0.08)">
      <use xlink:href="#DejaVuSans-45"/>
      <use xlink:href="#DejaVuSans-73" transform="translate(63.183594 0)"/>
      <use xlink:href="#DejaVuSans-67" transform="translate(115.283203 0)"/>
      <use xlink:href="#DejaVuSans-61" transform="translate(178.759766 0)"/>
      <use xlink:href="#DejaVuSans-6c" transform="translate(240.039062 0)"/>
      <use xlink:href="#DejaVuSans-64" transform="translate(267.822266 0)"/>
      <use xlink:href="#DejaVuSans-75" transform="translate(331.298828 0)"/>
      <use xlink:href="#DejaVuSans-69" transform="translate(394.677734 0)"/>
      <use xlink:href="#DejaVuSans-6e" transform="translate(422.460938 0)"/>
     </g>
    </g>
   </g>
   <g id="text_25">
    <g id="patch_26">
     <path d="M 841.535302 260.729797 
L 886.627802 260.729797 
L 886.627802 244.667297 
L 841.535302 244.667297 
z
" clip-path="url(#pb5629b7e9f)" style="fill: #ffffff; opacity: 0.7"/>
    </g>
    <g clip-path="url(#pb5629b7e9f)">
     <!-- Fontegrís -->
     <g transform="translate(845.535302 255.066047) scale(0.08 -0.08)">
      <defs>
       <path id="DejaVuSans-46" d="M 628 4666 
L 3309 4666 
L 3309 4134 
L 1259 4134 
L 1259 2759 
L 3109 2759 
L 3109 2228 
L 1259 2228 
L 1259 0 
L 628 0 
L 628 4666 
z
" transform="scale(0.015625)"/>
       <path id="DejaVuSans-ed" d="M 1322 5119 
L 1944 5119 
L 926 3944 
L 447 3944 
L 1322 5119 
z
M 603 3500 
L 1178 3500 
L 1178 0 
L 603 0 
L 603 3500 
z
M 891 3584 
L 891 3584 
z
" transform="scale(0.015625)"/>
      </defs>
      <use xlink:href="#DejaVuSans-46"/>
      <use xlink:href="#DejaVuSans-6f" transform="translate(53.894531 0)"/>
      <use xlink:href="#DejaVuSans-6e" transform="translate(115.076172 0)"/>
      <use xlink:href="#DejaVuSans-74" transform="translate(178.455078 0)"/>
      <use xlink:href="#DejaVuSans-65" transform="translate(217.664062 0)"/>
      <use xlink:href="#DejaVuSans-67" transform="translate(279.1875 0)"/>
      <use xlink:href="#DejaVuSans-72" transform="translate(342.664062 0)"/>
      <use xlink:href="#DejaVuSans-ed" transform="translate(383.777344 0)"/>
      <use xlink:href="#DejaVuSans-73" transform="translate(411.560547 0)"/>
     </g>
    </g>
   </g>
   <g id="text_26">
    <g id="patch_27">
     <path d="M 310.281383 448.978793 
L 347.905133 448.978793 
L 347.905133 433.236293 
L 310.281383 433.236293 
z
" clip-path="url(#pb5629b7e9f)" style="fill: #ffffff; opacity: 0.7"/>
    </g>
    <g clip-path="url(#pb5629b7e9f)">
     <!-- Fornost -->
     <g transform="translate(314.281383 443.315043) scale(0.08 -0.08)">
      <use xlink:href="#DejaVuSans-46"/>
      <use xlink:href="#DejaVuSans-6f" transform="translate(53.894531 0)"/>
      <use xlink:href="#DejaVuSans-72" transform="translate(115.076172 0)"/>
      <use xlink:href="#DejaVuSans-6e" transform="translate(154.439453 0)"/>
      <use xlink:href="#DejaVuSans-6f" transform="translate(217.818359 0)"/>
      <use xlink:href="#DejaVuSans-73" transform="translate(279 0)"/>
      <use xlink:href="#DejaVuSans-74" transform="translate(331.099609 0)"/>
     </g>
    </g>
   </g>
   <g id="text_27">
    <g id="patch_28">
     <path d="M 586.767913 185.323462 
L 673.035413 185.323462 
L 673.035413 169.580962 
L 586.767913 169.580962 
z
" clip-path="url(#pb5629b7e9f)" style="fill: #ffffff; opacity: 0.7"/>
    </g>
    <g clip-path="url(#pb5629b7e9f)">
     <!-- Fronteras del Oeste -->
     <g transform="translate(590.767913 179.659712) scale(0.08 -0.08)">
      <defs>
       <path id="DejaVuSans-4f" d="M 2522 4238 
Q 1834 4238 1429 3725 
Q 1025 3213 1025 2328 
Q 1025 1447 1429 934 
Q 1834 422 2522 422 
Q 3209 422 3611 934 
Q 4013 1447 4013 2328 
Q 4013 3213 3611 3725 
Q 3209 4238 2522 4238 
z
M 2522 4750 
Q 3503 4750 4090 4092 
Q 4678 3434 4678 2328 
Q 4678 1225 4090 567 
Q 3503 -91 2522 -91 
Q 1538 -91 948 565 
Q 359 1222 359 2328 
Q 359 3434 948 4092 
Q 1538 4750 2522 4750 
z
" transform="scale(0.015625)"/>
      </defs>
      <use xlink:href="#DejaVuSans-46"/>
      <use xlink:href="#DejaVuSans-72" transform="translate(50.269531 0)"/>
      <use xlink:href="#DejaVuSans-6f" transform="translate(89.132812 0)"/>
      <use xlink:href="#DejaVuSans-6e" transform="translate(150.314453 0)"/>
      <use xlink:href="#DejaVuSans-74" transform="translate(213.693359 0)"/>
      <use xlink:href="#DejaVuSans-65" transform="translate(252.902344 0)"/>
      <use xlink:href="#DejaVuSans-72" transform="translate(314.425781 0)"/>
      <use xlink:href="#DejaVuSans-61" transform="translate(355.539062 0)"/>
      <use xlink:href="#DejaVuSans-73" transform="translate(416.818359 0)"/>
      <use xlink:href="#DejaVuSans-20" transform="translate(468.917969 0)"/>
      <use xlink:href="#DejaVuSans-64" transform="translate(500.705078 0)"/>
      <use xlink:href="#DejaVuSans-65" transform="translate(564.181641 0)"/>
      <use xlink:href="#DejaVuSans-6c" transform="translate(625.705078 0)"/>
      <use xlink:href="#DejaVuSans-20" transform="translate(653.488281 0)"/>
      <use xlink:href="#DejaVuSans-4f" transform="translate(685.275391 0)"/>
      <use xlink:href="#DejaVuSans-65" transform="translate(763.986328 0)"/>
      <use xlink:href="#DejaVuSans-73" transform="translate(825.509766 0)"/>
      <use xlink:href="#DejaVuSans-74" transform="translate(877.609375 0)"/>
      <use xlink:href="#DejaVuSans-65" transform="translate(916.818359 0)"/>
     </g>
    </g>
   </g>
   <g id="text_28">
    <g id="patch_29">
     <path d="M 624.34641 298.895504 
L 679.40641 298.895504 
L 679.40641 283.153004 
L 624.34641 283.153004 
z
" clip-path="url(#pb5629b7e9f)" style="fill: #ffffff; opacity: 0.7"/>
    </g>
    <g clip-path="url(#pb5629b7e9f)">
     <!-- Gamoburgo -->
     <g transform="translate(628.34641 293.231754) scale(0.08 -0.08)">
      <use xlink:href="#DejaVuSans-47"/>
      <use xlink:href="#DejaVuSans-61" transform="translate(77.490234 0)"/>
      <use xlink:href="#DejaVuSans-6d" transform="translate(138.769531 0)"/>
      <use xlink:href="#DejaVuSans-6f" transform="translate(236.181641 0)"/>
      <use xlink:href="#DejaVuSans-62" transform="translate(297.363281 0)"/>
      <use xlink:href="#DejaVuSans-75" transform="translate(360.839844 0)"/>
      <use xlink:href="#DejaVuSans-72" transform="translate(424.21875 0)"/>
      <use xlink:href="#DejaVuSans-67" transform="translate(463.582031 0)"/>
      <use xlink:href="#DejaVuSans-6f" transform="translate(527.058594 0)"/>
     </g>
    </g>
   </g>
   <g id="text_29">
    <g id="patch_30">
     <path d="M 283.808522 211.745892 
L 321.234772 211.745892 
L 321.234772 196.003392 
L 283.808522 196.003392 
z
" clip-path="url(#pb5629b7e9f)" style="fill: #ffffff; opacity: 0.7"/>
    </g>
    <g clip-path="url(#pb5629b7e9f)">
     <!-- Gondor -->
     <g transform="translate(287.808522 206.082142) scale(0.08 -0.08)">
      <use xlink:href="#DejaVuSans-47"/>
      <use xlink:href="#DejaVuSans-6f" transform="translate(77.490234 0)"/>
      <use xlink:href="#DejaVuSans-6e" transform="translate(138.671875 0)"/>
      <use xlink:href="#DejaVuSans-64" transform="translate(202.050781 0)"/>
      <use xlink:href="#DejaVuSans-6f" transform="translate(265.527344 0)"/>
      <use xlink:href="#DejaVuSans-72" transform="translate(326.708984 0)"/>
     </g>
    </g>
   </g>
   <g id="text_30">
    <g id="patch_31">
     <path d="M 661.012813 173.413246 
L 715.387813 173.413246 
L 715.387813 157.670746 
L 661.012813 157.670746 
z
" clip-path="url(#pb5629b7e9f)" style="fill: #ffffff; opacity: 0.7"/>
    </g>
    <g clip-path="url(#pb5629b7e9f)">
     <!-- Gran Sauce -->
     <g transform="translate(665.012813 167.749496) scale(0.08 -0.08)">
      <use xlink:href="#DejaVuSans-47"/>
      <use xlink:href="#DejaVuSans-72" transform="translate(77.490234 0)"/>
      <use xlink:href="#DejaVuSans-61" transform="translate(118.603516 0)"/>
      <use xlink:href="#DejaVuSans-6e" transform="translate(179.882812 0)"/>
      <use xlink:href="#DejaVuSans-20" transform="translate(243.261719 0)"/>
      <use xlink:href="#DejaVuSans-53" transform="translate(275.048828 0)"/>
      <use xlink:href="#DejaVuSans-61" transform="translate(338.525391 0)"/>
      <use xlink:href="#DejaVuSans-75" transform="translate(399.804688 0)"/>
      <use xlink:href="#DejaVuSans-63" transform="translate(463.183594 0)"/>
      <use xlink:href="#DejaVuSans-65" transform="translate(518.164062 0)"/>
     </g>
    </g>
   </g>
   <g id="text_31">
    <g id="patch_32">
     <path d="M 310.710154 368.001122 
L 381.267654 368.001122 
L 381.267654 352.258622 
L 310.710154 352.258622 
z
" clip-path="url(#pb5629b7e9f)" style="fill: #ffffff; opacity: 0.7"/>
    </g>
    <g clip-path="url(#pb5629b7e9f)">
     <!-- Grandes Smials -->
     <g transform="translate(314.710154 362.337372) scale(0.08 -0.08)">
      <use xlink:href="#DejaVuSans-47"/>
      <use xlink:href="#DejaVuSans-72" transform="translate(77.490234 0)"/>
      <use xlink:href="#DejaVuSans-61" transform="translate(118.603516 0)"/>
      <use xlink:href="#DejaVuSans-6e" transform="translate(179.882812 0)"/>
      <use xlink:href="#DejaVuSans-64" transform="translate(243.261719 0)"/>
      <use xlink:href="#DejaVuSans-65" transform="translate(306.738281 0)"/>
      <use xlink:href="#DejaVuSans-73" transform="translate(368.261719 0)"/>
      <use xlink:href="#DejaVuSans-20" transform="translate(420.361328 0)"/>
      <use xlink:href="#DejaVuSans-53" transform="translate(452.148438 0)"/>
      <use xlink:href="#DejaVuSans-6d" transform="translate(515.625 0)"/>
      <use xlink:href="#DejaVuSans-69" transform="translate(613.037109 0)"/>
      <use xlink:href="#DejaVuSans-61" transform="translate(640.820312 0)"/>
      <use xlink:href="#DejaVuSans-6c" transform="translate(702.099609 0)"/>
      <use xlink:href="#DejaVuSans-73" transform="translate(729.882812 0)"/>
     </g>
    </g>
   </g>
   <g id="text_32">
    <g id="patch_33">
     <path d="M 581.085231 231.763936 
L 625.477731 231.763936 
L 625.477731 216.021436 
L 581.085231 216.021436 
z
" clip-path="url(#pb5629b7e9f)" style="fill: #ffffff; opacity: 0.7"/>
    </g>
    <g clip-path="url(#pb5629b7e9f)">
     <!-- Hobbiton -->
     <g transform="translate(585.085231 226.100186) scale(0.08 -0.08)">
      <defs>
       <path id="DejaVuSans-48" d="M 628 4666 
L 1259 4666 
L 1259 2753 
L 3553 2753 
L 3553 4666 
L 4184 4666 
L 4184 0 
L 3553 0 
L 3553 2222 
L 1259 2222 
L 1259 0 
L 628 0 
L 628 4666 
z
" transform="scale(0.015625)"/>
      </defs>
      <use xlink:href="#DejaVuSans-48"/>
      <use xlink:href="#DejaVuSans-6f" transform="translate(75.195312 0)"/>
      <use xlink:href="#DejaVuSans-62" transform="translate(136.376953 0)"/>
      <use xlink:href="#DejaVuSans-62" transform="translate(199.853516 0)"/>
      <use xlink:href="#DejaVuSans-69" transform="translate(263.330078 0)"/>
      <use xlink:href="#DejaVuSans-74" transform="translate(291.113281 0)"/>
      <use xlink:href="#DejaVuSans-6f" transform="translate(330.322266 0)"/>
      <use xlink:href="#DejaVuSans-6e" transform="translate(391.503906 0)"/>
     </g>
    </g>
   </g>
   <g id="text_33">
    <g id="patch_34">
     <path d="M 407.505695 610.802301 
L 481.044445 610.802301 
L 481.044445 595.059801 
L 407.505695 595.059801 
z
" clip-path="url(#pb5629b7e9f)" style="fill: #ffffff; opacity: 0.7"/>
    </g>
    <g clip-path="url(#pb5629b7e9f)">
     <!-- La Perca Dorada -->
     <g transform="translate(411.505695 605.138551) scale(0.08 -0.08)">
      <defs>
       <path id="DejaVuSans-4c" d="M 628 4666 
L 1259 4666 
L 1259 531 
L 3531 531 
L 3531 0 
L 628 0 
L 628 4666 
z
" transform="scale(0.015625)"/>
      </defs>
      <use xlink:href="#DejaVuSans-4c"/>
      <use xlink:href="#DejaVuSans-61" transform="translate(55.712891 0)"/>
      <use xlink:href="#DejaVuSans-20" transform="translate(116.992188 0)"/>
      <use xlink:href="#DejaVuSans-50" transform="translate(148.779297 0)"/>
      <use xlink:href="#DejaVuSans-65" transform="translate(205.457031 0)"/>
      <use xlink:href="#DejaVuSans-72" transform="translate(266.980469 0)"/>
      <use xlink:href="#DejaVuSans-63" transform="translate(305.84375 0)"/>
      <use xlink:href="#DejaVuSans-61" transform="translate(360.824219 0)"/>
      <use xlink:href="#DejaVuSans-20" transform="translate(422.103516 0)"/>
      <use xlink:href="#DejaVuSans-44" transform="translate(453.890625 0)"/>
      <use xlink:href="#DejaVuSans-6f" transform="translate(530.892578 0)"/>
      <use xlink:href="#DejaVuSans-72" transform="translate(592.074219 0)"/>
      <use xlink:href="#DejaVuSans-61" transform="translate(633.1875 0)"/>
      <use xlink:href="#DejaVuSans-64" transform="translate(694.466797 0)"/>
      <use xlink:href="#DejaVuSans-61" transform="translate(757.943359 0)"/>
     </g>
    </g>
   </g>
   <g id="text_34">
    <g id="patch_35">
     <path d="M 717.412288 324.329175 
L 769.771038 324.329175 
L 769.771038 308.586675 
L 717.412288 308.586675 
z
" clip-path="url(#pb5629b7e9f)" style="fill: #ffffff; opacity: 0.7"/>
    </g>
    <g clip-path="url(#pb5629b7e9f)">
     <!-- Lago Largo -->
     <g transform="translate(721.412288 318.665425) scale(0.08 -0.08)">
      <use xlink:href="#DejaVuSans-4c"/>
      <use xlink:href="#DejaVuSans-61" transform="translate(55.712891 0)"/>
      <use xlink:href="#DejaVuSans-67" transform="translate(116.992188 0)"/>
      <use xlink:href="#DejaVuSans-6f" transform="translate(180.46875 0)"/>
      <use xlink:href="#DejaVuSans-20" transform="translate(241.650391 0)"/>
      <use xlink:href="#DejaVuSans-4c" transform="translate(273.4375 0)"/>
      <use xlink:href="#DejaVuSans-61" transform="translate(329.150391 0)"/>
      <use xlink:href="#DejaVuSans-72" transform="translate(390.429688 0)"/>
      <use xlink:href="#DejaVuSans-67" transform="translate(429.792969 0)"/>
      <use xlink:href="#DejaVuSans-6f" transform="translate(493.269531 0)"/>
     </g>
    </g>
   </g>
   <g id="text_35">
    <g id="patch_36">
     <path d="M 655.166154 275.762 
L 707.044904 275.762 
L 707.044904 260.0195 
L 655.166154 260.0195 
z
" clip-path="url(#pb5629b7e9f)" style="fill: #ffffff; opacity: 0.7"/>
    </g>
    <g clip-path="url(#pb5629b7e9f)">
     <!-- Los Gamos -->
     <g transform="translate(659.166154 270.09825) scale(0.08 -0.08)">
      <use xlink:href="#DejaVuSans-4c"/>
      <use xlink:href="#DejaVuSans-6f" transform="translate(53.962891 0)"/>
      <use xlink:href="#DejaVuSans-73" transform="translate(115.144531 0)"/>
      <use xlink:href="#DejaVuSans-20" transform="translate(167.244141 0)"/>
      <use xlink:href="#DejaVuSans-47" transform="translate(199.03125 0)"/>
      <use xlink:href="#DejaVuSans-61" transform="translate(276.521484 0)"/>
      <use xlink:href="#DejaVuSans-6d" transform="translate(337.800781 0)"/>
      <use xlink:href="#DejaVuSans-6f" transform="translate(435.212891 0)"/>
      <use xlink:href="#DejaVuSans-73" transform="translate(496.394531 0)"/>
     </g>
    </g>
   </g>
   <g id="text_36">
    <g id="patch_37">
     <path d="M 854.896239 597.233745 
L 877.353739 597.233745 
L 877.353739 581.491245 
L 854.896239 581.491245 
z
" clip-path="url(#pb5629b7e9f)" style="fill: #ffffff; opacity: 0.7"/>
    </g>
    <g clip-path="url(#pb5629b7e9f)">
     <!-- Lun -->
     <g transform="translate(858.896239 591.569995) scale(0.08 -0.08)">
      <use xlink:href="#DejaVuSans-4c"/>
      <use xlink:href="#DejaVuSans-75" transform="translate(53.962891 0)"/>
      <use xlink:href="#DejaVuSans-6e" transform="translate(117.341797 0)"/>
     </g>
    </g>
   </g>
   <g id="text_37">
    <g id="patch_38">
     <path d="M 662.700507 274.450593 
L 714.900507 274.450593 
L 714.900507 258.708093 
L 662.700507 258.708093 
z
" clip-path="url(#pb5629b7e9f)" style="fill: #ffffff; opacity: 0.7"/>
    </g>
    <g clip-path="url(#pb5629b7e9f)">
     <!-- Mantecona -->
     <g transform="translate(666.700507 268.786843) scale(0.08 -0.08)">
      <defs>
       <path id="DejaVuSans-4d" d="M 628 4666 
L 1569 4666 
L 2759 1491 
L 3956 4666 
L 4897 4666 
L 4897 0 
L 4281 0 
L 4281 4097 
L 3078 897 
L 2444 897 
L 1241 4097 
L 1241 0 
L 628 0 
L 628 4666 
z
" transform="scale(0.015625)"/>
      </defs>
      <use xlink:href="#DejaVuSans-4d"/>
      <use xlink:href="#DejaVuSans-61" transform="translate(86.279297 0)"/>
      <use xlink:href="#DejaVuSans-6e" transform="translate(147.558594 0)"/>
      <use xlink:href="#DejaVuSans-74" transform="translate(210.9375 0)"/>
      <use xlink:href="#DejaVuSans-65" transform="translate(250.146484 0)"/>
      <use xlink:href="#DejaVuSans-63" transform="translate(311.669922 0)"/>
      <use xlink:href="#DejaVuSans-6f" transform="translate(366.650391 0)"/>
      <use xlink:href="#DejaVuSans-6e" transform="translate(427.832031 0)"/>
      <use xlink:href="#DejaVuSans-61" transform="translate(491.210938 0)"/>
     </g>
    </g>
   </g>
   <g id="text_38">
    <g id="patch_39">
     <path d="M 599.535479 562.644508 
L 686.780479 562.644508 
L 686.780479 546.902008 
L 599.535479 546.902008 
z
" clip-path="url(#pb5629b7e9f)" style="fill: #ffffff; opacity: 0.7"/>
    </g>
    <g clip-path="url(#pb5629b7e9f)">
     <!-- Montañas del Terror -->
     <g transform="translate(603.535479 556.980758) scale(0.08 -0.08)">
      <defs>
       <path id="DejaVuSans-f1" d="M 3513 2113 
L 3513 0 
L 2938 0 
L 2938 2094 
Q 2938 2591 2744 2837 
Q 2550 3084 2163 3084 
Q 1697 3084 1428 2787 
Q 1159 2491 1159 1978 
L 1159 0 
L 581 0 
L 581 3500 
L 1159 3500 
L 1159 2956 
Q 1366 3272 1645 3428 
Q 1925 3584 2291 3584 
Q 2894 3584 3203 3211 
Q 3513 2838 3513 2113 
z
M 2060 4281 
L 1881 4453 
Q 1813 4516 1761 4545 
Q 1710 4575 1669 4575 
Q 1550 4575 1494 4461 
Q 1438 4347 1431 4091 
L 1041 4091 
Q 1047 4513 1206 4742 
Q 1366 4972 1650 4972 
Q 1769 4972 1869 4928 
Q 1969 4884 2085 4781 
L 2263 4609 
Q 2331 4547 2383 4517 
Q 2435 4488 2475 4488 
Q 2594 4488 2650 4602 
Q 2706 4716 2713 4972 
L 3103 4972 
Q 3097 4550 2937 4320 
Q 2778 4091 2494 4091 
Q 2375 4091 2275 4134 
Q 2175 4178 2060 4281 
z
" transform="scale(0.015625)"/>
      </defs>
      <use xlink:href="#DejaVuSans-4d"/>
      <use xlink:href="#DejaVuSans-6f" transform="translate(86.279297 0)"/>
      <use xlink:href="#DejaVuSans-6e" transform="translate(147.460938 0)"/>
      <use xlink:href="#DejaVuSans-74" transform="translate(210.839844 0)"/>
      <use xlink:href="#DejaVuSans-61" transform="translate(250.048828 0)"/>
      <use xlink:href="#DejaVuSans-f1" transform="translate(311.328125 0)"/>
      <use xlink:href="#DejaVuSans-61" transform="translate(374.707031 0)"/>
      <use xlink:href="#DejaVuSans-73" transform="translate(435.986328 0)"/>
      <use xlink:href="#DejaVuSans-20" transform="translate(488.085938 0)"/>
      <use xlink:href="#DejaVuSans-64" transform="translate(519.873047 0)"/>
      <use xlink:href="#DejaVuSans-65" transform="translate(583.349609 0)"/>
      <use xlink:href="#DejaVuSans-6c" transform="translate(644.873047 0)"/>
      <use xlink:href="#DejaVuSans-20" transform="translate(672.65625 0)"/>
      <use xlink:href="#DejaVuSans-54" transform="translate(704.443359 0)"/>
      <use xlink:href="#DejaVuSans-65" transform="translate(748.527344 0)"/>
      <use xlink:href="#DejaVuSans-72" transform="translate(810.050781 0)"/>
      <use xlink:href="#DejaVuSans-72" transform="translate(849.414062 0)"/>
      <use xlink:href="#DejaVuSans-6f" transform="translate(888.277344 0)"/>
      <use xlink:href="#DejaVuSans-72" transform="translate(949.458984 0)"/>
     </g>
    </g>
   </g>
   <g id="text_39">
    <g id="patch_40">
     <path d="M 353.637378 543.878892 
L 389.846128 543.878892 
L 389.846128 528.136392 
L 353.637378 528.136392 
z
" clip-path="url(#pb5629b7e9f)" style="fill: #ffffff; opacity: 0.7"/>
    </g>
    <g clip-path="url(#pb5629b7e9f)">
     <!-- Mordor -->
     <g transform="translate(357.637378 538.215142) scale(0.08 -0.08)">
      <use xlink:href="#DejaVuSans-4d"/>
      <use xlink:href="#DejaVuSans-6f" transform="translate(86.279297 0)"/>
      <use xlink:href="#DejaVuSans-72" transform="translate(147.460938 0)"/>
      <use xlink:href="#DejaVuSans-64" transform="translate(186.824219 0)"/>
      <use xlink:href="#DejaVuSans-6f" transform="translate(250.300781 0)"/>
      <use xlink:href="#DejaVuSans-72" transform="translate(311.482422 0)"/>
     </g>
    </g>
   </g>
   <g id="text_40">
    <g id="patch_41">
     <path d="M 633.52427 619.107881 
L 680.86552 619.107881 
L 680.86552 603.365381 
L 633.52427 603.365381 
z
" clip-path="url(#pb5629b7e9f)" style="fill: #ffffff; opacity: 0.7"/>
    </g>
    <g clip-path="url(#pb5629b7e9f)">
     <!-- Neldoreth -->
     <g transform="translate(637.52427 613.444131) scale(0.08 -0.08)">
      <defs>
       <path id="DejaVuSans-4e" d="M 628 4666 
L 1478 4666 
L 3547 763 
L 3547 4666 
L 4159 4666 
L 4159 0 
L 3309 0 
L 1241 3903 
L 1241 0 
L 628 0 
L 628 4666 
z
" transform="scale(0.015625)"/>
      </defs>
      <use xlink:href="#DejaVuSans-4e"/>
      <use xlink:href="#DejaVuSans-65" transform="translate(74.804688 0)"/>
      <use xlink:href="#DejaVuSans-6c" transform="translate(136.328125 0)"/>
      <use xlink:href="#DejaVuSans-64" transform="translate(164.111328 0)"/>
      <use xlink:href="#DejaVuSans-6f" transform="translate(227.587891 0)"/>
      <use xlink:href="#DejaVuSans-72" transform="translate(288.769531 0)"/>
      <use xlink:href="#DejaVuSans-65" transform="translate(327.632812 0)"/>
      <use xlink:href="#DejaVuSans-74" transform="translate(389.15625 0)"/>
      <use xlink:href="#DejaVuSans-68" transform="translate(428.365234 0)"/>
     </g>
    </g>
   </g>
   <g id="text_41">
    <g id="patch_42">
     <path d="M 312.111533 425.800188 
L 357.551533 425.800188 
L 357.551533 410.057688 
L 312.111533 410.057688 
z
" clip-path="url(#pb5629b7e9f)" style="fill: #ffffff; opacity: 0.7"/>
    </g>
    <g clip-path="url(#pb5629b7e9f)">
     <!-- Norburgo -->
     <g transform="translate(316.111533 420.136438) scale(0.08 -0.08)">
      <use xlink:href="#DejaVuSans-4e"/>
      <use xlink:href="#DejaVuSans-6f" transform="translate(74.804688 0)"/>
      <use xlink:href="#DejaVuSans-72" transform="translate(135.986328 0)"/>
      <use xlink:href="#DejaVuSans-62" transform="translate(177.099609 0)"/>
      <use xlink:href="#DejaVuSans-75" transform="translate(240.576172 0)"/>
      <use xlink:href="#DejaVuSans-72" transform="translate(303.955078 0)"/>
      <use xlink:href="#DejaVuSans-67" transform="translate(343.318359 0)"/>
      <use xlink:href="#DejaVuSans-6f" transform="translate(406.794922 0)"/>
     </g>
    </g>
   </g>
   <g id="text_42">
    <g id="patch_43">
     <path d="M 777.155296 80.969434 
L 835.000296 80.969434 
L 835.000296 65.226934 
L 777.155296 65.226934 
z
" clip-path="url(#pb5629b7e9f)" style="fill: #ffffff; opacity: 0.7"/>
    </g>
    <g clip-path="url(#pb5629b7e9f)">
     <!-- Oesternesse -->
     <g transform="translate(781.155296 75.305684) scale(0.08 -0.08)">
      <use xlink:href="#DejaVuSans-4f"/>
      <use xlink:href="#DejaVuSans-65" transform="translate(78.710938 0)"/>
      <use xlink:href="#DejaVuSans-73" transform="translate(140.234375 0)"/>
      <use xlink:href="#DejaVuSans-74" transform="translate(192.333984 0)"/>
      <use xlink:href="#DejaVuSans-65" transform="translate(231.542969 0)"/>
      <use xlink:href="#DejaVuSans-72" transform="translate(293.066406 0)"/>
      <use xlink:href="#DejaVuSans-6e" transform="translate(332.429688 0)"/>
      <use xlink:href="#DejaVuSans-65" transform="translate(395.808594 0)"/>
      <use xlink:href="#DejaVuSans-73" transform="translate(457.332031 0)"/>
      <use xlink:href="#DejaVuSans-73" transform="translate(509.431641 0)"/>
      <use xlink:href="#DejaVuSans-65" transform="translate(561.53125 0)"/>
     </g>
    </g>
   </g>
   <g id="text_43">
    <g id="patch_44">
     <path d="M 875.923787 259.730219 
L 940.395037 259.730219 
L 940.395037 243.987719 
L 875.923787 243.987719 
z
" clip-path="url(#pb5629b7e9f)" style="fill: #ffffff; opacity: 0.7"/>
    </g>
    <g clip-path="url(#pb5629b7e9f)">
     <!-- Puente Ultimo -->
     <g transform="translate(879.923787 254.066469) scale(0.08 -0.08)">
      <defs>
       <path id="DejaVuSans-55" d="M 556 4666 
L 1191 4666 
L 1191 1831 
Q 1191 1081 1462 751 
Q 1734 422 2344 422 
Q 2950 422 3222 751 
Q 3494 1081 3494 1831 
L 3494 4666 
L 4128 4666 
L 4128 1753 
Q 4128 841 3676 375 
Q 3225 -91 2344 -91 
Q 1459 -91 1007 375 
Q 556 841 556 1753 
L 556 4666 
z
" transform="scale(0.015625)"/>
      </defs>
      <use xlink:href="#DejaVuSans-50"/>
      <use xlink:href="#DejaVuSans-75" transform="translate(58.552734 0)"/>
      <use xlink:href="#DejaVuSans-65" transform="translate(121.931641 0)"/>
      <use xlink:href="#DejaVuSans-6e" transform="translate(183.455078 0)"/>
      <use xlink:href="#DejaVuSans-74" transform="translate(246.833984 0)"/>
      <use xlink:href="#DejaVuSans-65" transform="translate(286.042969 0)"/>
      <use xlink:href="#DejaVuSans-20" transform="translate(347.566406 0)"/>
      <use xlink:href="#DejaVuSans-55" transform="translate(379.353516 0)"/>
      <use xlink:href="#DejaVuSans-6c" transform="translate(452.546875 0)"/>
      <use xlink:href="#DejaVuSans-74" transform="translate(480.330078 0)"/>
      <use xlink:href="#DejaVuSans-69" transform="translate(519.539062 0)"/>
      <use xlink:href="#DejaVuSans-6d" transform="translate(547.322266 0)"/>
      <use xlink:href="#DejaVuSans-6f" transform="translate(644.734375 0)"/>
     </g>
    </g>
   </g>
   <g id="text_44">
    <g id="patch_45">
     <path d="M 605.615896 233.477786 
L 701.703396 233.477786 
L 701.703396 217.735286 
L 605.615896 217.735286 
z
" clip-path="url(#pb5629b7e9f)" style="fill: #ffffff; opacity: 0.7"/>
    </g>
    <g clip-path="url(#pb5629b7e9f)">
     <!-- Puente del Brandivino -->
     <g transform="translate(609.615896 227.814036) scale(0.08 -0.08)">
      <use xlink:href="#DejaVuSans-50"/>
      <use xlink:href="#DejaVuSans-75" transform="translate(58.552734 0)"/>
      <use xlink:href="#DejaVuSans-65" transform="translate(121.931641 0)"/>
      <use xlink:href="#DejaVuSans-6e" transform="translate(183.455078 0)"/>
      <use xlink:href="#DejaVuSans-74" transform="translate(246.833984 0)"/>
      <use xlink:href="#DejaVuSans-65" transform="translate(286.042969 0)"/>
      <use xlink:href="#DejaVuSans-20" transform="translate(347.566406 0)"/>
      <use xlink:href="#DejaVuSans-64" transform="translate(379.353516 0)"/>
      <use xlink:href="#DejaVuSans-65" transform="translate(442.830078 0)"/>
      <use xlink:href="#DejaVuSans-6c" transform="translate(504.353516 0)"/>
      <use xlink:href="#DejaVuSans-20" transform="translate(532.136719 0)"/>
      <use xlink:href="#DejaVuSans-42" transform="translate(563.923828 0)"/>
      <use xlink:href="#DejaVuSans-72" transform="translate(632.527344 0)"/>
      <use xlink:href="#DejaVuSans-61" transform="translate(673.640625 0)"/>
      <use xlink:href="#DejaVuSans-6e" transform="translate(734.919922 0)"/>
      <use xlink:href="#DejaVuSans-64" transform="translate(798.298828 0)"/>
      <use xlink:href="#DejaVuSans-69" transform="translate(861.775391 0)"/>
      <use xlink:href="#DejaVuSans-76" transform="translate(889.558594 0)"/>
      <use xlink:href="#DejaVuSans-69" transform="translate(948.738281 0)"/>
      <use xlink:href="#DejaVuSans-6e" transform="translate(976.521484 0)"/>
      <use xlink:href="#DejaVuSans-6f" transform="translate(1039.900391 0)"/>
     </g>
    </g>
   </g>
   <g id="text_45">
    <g id="patch_46">
     <path d="M 780.423452 261.870796 
L 823.155952 261.870796 
L 823.155952 246.128296 
L 780.423452 246.128296 
z
" clip-path="url(#pb5629b7e9f)" style="fill: #ffffff; opacity: 0.7"/>
    </g>
    <g clip-path="url(#pb5629b7e9f)">
     <!-- Rivendel -->
     <g transform="translate(784.423452 256.207046) scale(0.08 -0.08)">
      <defs>
       <path id="DejaVuSans-52" d="M 2841 2188 
Q 3044 2119 3236 1894 
Q 3428 1669 3622 1275 
L 4263 0 
L 3584 0 
L 2988 1197 
Q 2756 1666 2539 1819 
Q 2322 1972 1947 1972 
L 1259 1972 
L 1259 0 
L 628 0 
L 628 4666 
L 2053 4666 
Q 2853 4666 3247 4331 
Q 3641 3997 3641 3322 
Q 3641 2881 3436 2590 
Q 3231 2300 2841 2188 
z
M 1259 4147 
L 1259 2491 
L 2053 2491 
Q 2509 2491 2742 2702 
Q 2975 2913 2975 3322 
Q 2975 3731 2742 3939 
Q 2509 4147 2053 4147 
L 1259 4147 
z
" transform="scale(0.015625)"/>
      </defs>
      <use xlink:href="#DejaVuSans-52"/>
      <use xlink:href="#DejaVuSans-69" transform="translate(69.482422 0)"/>
      <use xlink:href="#DejaVuSans-76" transform="translate(97.265625 0)"/>
      <use xlink:href="#DejaVuSans-65" transform="translate(156.445312 0)"/>
      <use xlink:href="#DejaVuSans-6e" transform="translate(217.96875 0)"/>
      <use xlink:href="#DejaVuSans-64" transform="translate(281.347656 0)"/>
      <use xlink:href="#DejaVuSans-65" transform="translate(344.824219 0)"/>
      <use xlink:href="#DejaVuSans-6c" transform="translate(406.347656 0)"/>
     </g>
    </g>
   </g>
   <g id="text_46">
    <g id="patch_47">
     <path d="M 717.147583 189.084217 
L 769.827583 189.084217 
L 769.827583 173.341717 
L 717.147583 173.341717 
z
" clip-path="url(#pb5629b7e9f)" style="fill: #ffffff; opacity: 0.7"/>
    </g>
    <g clip-path="url(#pb5629b7e9f)">
     <!-- Río Grande -->
     <g transform="translate(721.147583 183.420467) scale(0.08 -0.08)">
      <use xlink:href="#DejaVuSans-52"/>
      <use xlink:href="#DejaVuSans-ed" transform="translate(69.482422 0)"/>
      <use xlink:href="#DejaVuSans-6f" transform="translate(97.265625 0)"/>
      <use xlink:href="#DejaVuSans-20" transform="translate(158.447266 0)"/>
      <use xlink:href="#DejaVuSans-47" transform="translate(190.234375 0)"/>
      <use xlink:href="#DejaVuSans-72" transform="translate(267.724609 0)"/>
      <use xlink:href="#DejaVuSans-61" transform="translate(308.837891 0)"/>
      <use xlink:href="#DejaVuSans-6e" transform="translate(370.117188 0)"/>
      <use xlink:href="#DejaVuSans-64" transform="translate(433.496094 0)"/>
      <use xlink:href="#DejaVuSans-65" transform="translate(496.972656 0)"/>
     </g>
    </g>
   </g>
   <g id="text_47">
    <g id="patch_48">
     <path d="M 860.725776 247.722862 
L 906.640776 247.722862 
L 906.640776 231.980362 
L 860.725776 231.980362 
z
" clip-path="url(#pb5629b7e9f)" style="fill: #ffffff; opacity: 0.7"/>
    </g>
    <g clip-path="url(#pb5629b7e9f)">
     <!-- Sonorona -->
     <g transform="translate(864.725776 242.059112) scale(0.08 -0.08)">
      <use xlink:href="#DejaVuSans-53"/>
      <use xlink:href="#DejaVuSans-6f" transform="translate(63.476562 0)"/>
      <use xlink:href="#DejaVuSans-6e" transform="translate(124.658203 0)"/>
      <use xlink:href="#DejaVuSans-6f" transform="translate(188.037109 0)"/>
      <use xlink:href="#DejaVuSans-72" transform="translate(249.21875 0)"/>
      <use xlink:href="#DejaVuSans-6f" transform="translate(288.082031 0)"/>
      <use xlink:href="#DejaVuSans-6e" transform="translate(349.263672 0)"/>
      <use xlink:href="#DejaVuSans-61" transform="translate(412.642578 0)"/>
     </g>
    </g>
   </g>
   <g id="text_48">
    <g id="patch_49">
     <path d="M 929.846815 233.071874 
L 971.054315 233.071874 
L 971.054315 217.329374 
L 929.846815 217.329374 
z
" clip-path="url(#pb5629b7e9f)" style="fill: #ffffff; opacity: 0.7"/>
    </g>
    <g clip-path="url(#pb5629b7e9f)">
     <!-- Tharbad -->
     <g transform="translate(933.846815 227.408124) scale(0.08 -0.08)">
      <use xlink:href="#DejaVuSans-54"/>
      <use xlink:href="#DejaVuSans-68" transform="translate(61.083984 0)"/>
      <use xlink:href="#DejaVuSans-61" transform="translate(124.462891 0)"/>
      <use xlink:href="#DejaVuSans-72" transform="translate(185.742188 0)"/>
      <use xlink:href="#DejaVuSans-62" transform="translate(226.855469 0)"/>
      <use xlink:href="#DejaVuSans-61" transform="translate(290.332031 0)"/>
      <use xlink:href="#DejaVuSans-64" transform="translate(351.611328 0)"/>
     </g>
    </g>
   </g>
   <g id="text_49">
    <g id="patch_50">
     <path d="M 965.362458 222.910201 
L 1031.181208 222.910201 
L 1031.181208 207.167701 
L 965.362458 207.167701 
z
" clip-path="url(#pb5629b7e9f)" style="fill: #ffffff; opacity: 0.7"/>
    </g>
    <g clip-path="url(#pb5629b7e9f)">
     <!-- Tierras Brunas -->
     <g transform="translate(969.362458 217.246451) scale(0.08 -0.08)">
      <use xlink:href="#DejaVuSans-54"/>
      <use xlink:href="#DejaVuSans-69" transform="translate(57.958984 0)"/>
      <use xlink:href="#DejaVuSans-65" transform="translate(85.742188 0)"/>
      <use xlink:href="#DejaVuSans-72" transform="translate(147.265625 0)"/>
      <use xlink:href="#DejaVuSans-72" transform="translate(186.628906 0)"/>
      <use xlink:href="#DejaVuSans-61" transform="translate(227.742188 0)"/>
      <use xlink:href="#DejaVuSans-73" transform="translate(289.021484 0)"/>
      <use xlink:href="#DejaVuSans-20" transform="translate(341.121094 0)"/>
      <use xlink:href="#DejaVuSans-42" transform="translate(372.908203 0)"/>
      <use xlink:href="#DejaVuSans-72" transform="translate(441.511719 0)"/>
      <use xlink:href="#DejaVuSans-75" transform="translate(482.625 0)"/>
      <use xlink:href="#DejaVuSans-6e" transform="translate(546.003906 0)"/>
      <use xlink:href="#DejaVuSans-61" transform="translate(609.382812 0)"/>
      <use xlink:href="#DejaVuSans-73" transform="translate(670.662109 0)"/>
     </g>
    </g>
   </g>
   <g id="text_50">
    <g id="patch_51">
     <path d="M 524.336183 221.418389 
L 588.089933 221.418389 
L 588.089933 205.675889 
L 524.336183 205.675889 
z
" clip-path="url(#pb5629b7e9f)" style="fill: #ffffff; opacity: 0.7"/>
    </g>
    <g clip-path="url(#pb5629b7e9f)">
     <!-- Tierras de Tuk -->
     <g transform="translate(528.336183 215.754639) scale(0.08 -0.08)">
      <defs>
       <path id="DejaVuSans-6b" d="M 581 4863 
L 1159 4863 
L 1159 1991 
L 2875 3500 
L 3609 3500 
L 1753 1863 
L 3688 0 
L 2938 0 
L 1159 1709 
L 1159 0 
L 581 0 
L 581 4863 
z
" transform="scale(0.015625)"/>
      </defs>
      <use xlink:href="#DejaVuSans-54"/>
      <use xlink:href="#DejaVuSans-69" transform="translate(57.958984 0)"/>
      <use xlink:href="#DejaVuSans-65" transform="translate(85.742188 0)"/>
      <use xlink:href="#DejaVuSans-72" transform="translate(147.265625 0)"/>
      <use xlink:href="#DejaVuSans-72" transform="translate(186.628906 0)"/>
      <use xlink:href="#DejaVuSans-61" transform="translate(227.742188 0)"/>
      <use xlink:href="#DejaVuSans-73" transform="translate(289.021484 0)"/>
      <use xlink:href="#DejaVuSans-20" transform="translate(341.121094 0)"/>
      <use xlink:href="#DejaVuSans-64" transform="translate(372.908203 0)"/>
      <use xlink:href="#DejaVuSans-65" transform="translate(436.384766 0)"/>
      <use xlink:href="#DejaVuSans-20" transform="translate(497.908203 0)"/>
      <use xlink:href="#DejaVuSans-54" transform="translate(529.695312 0)"/>
      <use xlink:href="#DejaVuSans-75" transform="translate(575.654297 0)"/>
      <use xlink:href="#DejaVuSans-6b" transform="translate(639.033203 0)"/>
     </g>
    </g>
   </g>
   <g id="text_51">
    <g id="patch_52">
     <path d="M 673.932815 396.331685 
L 706.964065 396.331685 
L 706.964065 380.589185 
L 673.932815 380.589185 
z
" clip-path="url(#pb5629b7e9f)" style="fill: #ffffff; opacity: 0.7"/>
    </g>
    <g clip-path="url(#pb5629b7e9f)">
     <!-- Tirada -->
     <g transform="translate(677.932815 390.667935) scale(0.08 -0.08)">
      <use xlink:href="#DejaVuSans-54"/>
      <use xlink:href="#DejaVuSans-69" transform="translate(57.958984 0)"/>
      <use xlink:href="#DejaVuSans-72" transform="translate(85.742188 0)"/>
      <use xlink:href="#DejaVuSans-61" transform="translate(126.855469 0)"/>
      <use xlink:href="#DejaVuSans-64" transform="translate(188.134766 0)"/>
      <use xlink:href="#DejaVuSans-61" transform="translate(251.611328 0)"/>
     </g>
    </g>
   </g>
   <g id="text_52">
    <g id="patch_53">
     <path d="M 652.75797 212.38078 
L 705.76172 212.38078 
L 705.76172 196.63828 
L 652.75797 196.63828 
z
" clip-path="url(#pb5629b7e9f)" style="fill: #ffffff; opacity: 0.7"/>
    </g>
    <g clip-path="url(#pb5629b7e9f)">
     <!-- Tornasauce -->
     <g transform="translate(656.75797 206.71703) scale(0.08 -0.08)">
      <use xlink:href="#DejaVuSans-54"/>
      <use xlink:href="#DejaVuSans-6f" transform="translate(44.083984 0)"/>
      <use xlink:href="#DejaVuSans-72" transform="translate(105.265625 0)"/>
      <use xlink:href="#DejaVuSans-6e" transform="translate(144.628906 0)"/>
      <use xlink:href="#DejaVuSans-61" transform="translate(208.007812 0)"/>
      <use xlink:href="#DejaVuSans-73" transform="translate(269.287109 0)"/>
      <use xlink:href="#DejaVuSans-61" transform="translate(321.386719 0)"/>
      <use xlink:href="#DejaVuSans-75" transform="translate(382.666016 0)"/>
      <use xlink:href="#DejaVuSans-63" transform="translate(446.044922 0)"/>
      <use xlink:href="#DejaVuSans-65" transform="translate(501.025391 0)"/>
     </g>
    </g>
   </g>
   <g id="text_53">
    <g id="patch_54">
     <path d="M 335.540284 380.42133 
L 404.966534 380.42133 
L 404.966534 364.67883 
L 335.540284 364.67883 
z
" clip-path="url(#pb5629b7e9f)" style="fill: #ffffff; opacity: 0.7"/>
    </g>
    <g clip-path="url(#pb5629b7e9f)">
     <!-- Torres de Abajo -->
     <g transform="translate(339.540284 374.75758) scale(0.08 -0.08)">
      <use xlink:href="#DejaVuSans-54"/>
      <use xlink:href="#DejaVuSans-6f" transform="translate(44.083984 0)"/>
      <use xlink:href="#DejaVuSans-72" transform="translate(105.265625 0)"/>
      <use xlink:href="#DejaVuSans-72" transform="translate(144.628906 0)"/>
      <use xlink:href="#DejaVuSans-65" transform="translate(183.492188 0)"/>
      <use xlink:href="#DejaVuSans-73" transform="translate(245.015625 0)"/>
      <use xlink:href="#DejaVuSans-20" transform="translate(297.115234 0)"/>
      <use xlink:href="#DejaVuSans-64" transform="translate(328.902344 0)"/>
      <use xlink:href="#DejaVuSans-65" transform="translate(392.378906 0)"/>
      <use xlink:href="#DejaVuSans-20" transform="translate(453.902344 0)"/>
      <use xlink:href="#DejaVuSans-41" transform="translate(485.689453 0)"/>
      <use xlink:href="#DejaVuSans-62" transform="translate(554.097656 0)"/>
      <use xlink:href="#DejaVuSans-61" transform="translate(617.574219 0)"/>
      <use xlink:href="#DejaVuSans-6a" transform="translate(678.853516 0)"/>
      <use xlink:href="#DejaVuSans-6f" transform="translate(706.636719 0)"/>
     </g>
    </g>
   </g>
   <g id="text_54">
    <!-- Mapa refinado · force-directed post Z3 -->
    <g transform="translate(529.049063 16.318125) scale(0.12 -0.12)">
     <defs>
      <path id="DejaVuSans-b7" d="M 684 2619 
L 1344 2619 
L 1344 1825 
L 684 1825 
L 684 2619 
z
" transform="scale(0.015625)"/>
      <path id="DejaVuSans-2d" d="M 313 2009 
L 1997 2009 
L 1997 1497 
L 313 1497 
L 313 2009 
z
" transform="scale(0.015625)"/>
      <path id="DejaVuSans-5a" d="M 359 4666 
L 4025 4666 
L 4025 4184 
L 1075 531 
L 4097 531 
L 4097 0 
L 288 0 
L 288 481 
L 3238 4134 
L 359 4134 
L 359 4666 
z
" transform="scale(0.015625)"/>
      <path id="DejaVuSans-33" d="M 2597 2516 
Q 3050 2419 3304 2112 
Q 3559 1806 3559 1356 
Q 3559 666 3084 287 
Q 2609 -91 1734 -91 
Q 1441 -91 1130 -33 
Q 819 25 488 141 
L 488 750 
Q 750 597 1062 519 
Q 1375 441 1716 441 
Q 2309 441 2620 675 
Q 2931 909 2931 1356 
Q 2931 1769 2642 2001 
Q 2353 2234 1838 2234 
L 1294 2234 
L 1294 2753 
L 1863 2753 
Q 2328 2753 2575 2939 
Q 2822 3125 2822 3475 
Q 2822 3834 2567 4026 
Q 2313 4219 1838 4219 
Q 1578 4219 1281 4162 
Q 984 4106 628 3988 
L 628 4550 
Q 988 4650 1302 4700 
Q 1616 4750 1894 4750 
Q 2613 4750 3031 4423 
Q 3450 4097 3450 3541 
Q 3450 3153 3228 2886 
Q 3006 2619 2597 2516 
z
" transform="scale(0.015625)"/>
     </defs>
     <use xlink:href="#DejaVuSans-4d"/>
     <use xlink:href="#DejaVuSans-61" transform="translate(86.279297 0)"/>
     <use xlink:href="#DejaVuSans-70" transform="translate(147.558594 0)"/>
     <use xlink:href="#DejaVuSans-61" transform="translate(211.035156 0)"/>
     <use xlink:href="#DejaVuSans-20" transform="translate(272.314453 0)"/>
     <use xlink:href="#DejaVuSans-72" transform="translate(304.101562 0)"/>
     <use xlink:href="#DejaVuSans-65" transform="translate(342.964844 0)"/>
     <use xlink:href="#DejaVuSans-66" transform="translate(404.488281 0)"/>
     <use xlink:href="#DejaVuSans-69" transform="translate(439.693359 0)"/>
     <use xlink:href="#DejaVuSans-6e" transform="translate(467.476562 0)"/>
     <use xlink:href="#DejaVuSans-61" transform="translate(530.855469 0)"/>
     <use xlink:href="#DejaVuSans-64" transform="translate(592.134766 0)"/>
     <use xlink:href="#DejaVuSans-6f" transform="translate(655.611328 0)"/>
     <use xlink:href="#DejaVuSans-20" transform="translate(716.792969 0)"/>
     <use xlink:href="#DejaVuSans-b7" transform="translate(748.580078 0)"/>
     <use xlink:href="#DejaVuSans-20" transform="translate(780.367188 0)"/>
     <use xlink:href="#DejaVuSans-66" transform="translate(812.154297 0)"/>
     <use xlink:href="#DejaVuSans-6f" transform="translate(847.359375 0)"/>
     <use xlink:href="#DejaVuSans-72" transform="translate(908.541016 0)"/>
     <use xlink:href="#DejaVuSans-63" transform="translate(947.404297 0)"/>
     <use xlink:href="#DejaVuSans-65" transform="translate(1002.384766 0)"/>
     <use xlink:href="#DejaVuSans-2d" transform="translate(1063.908203 0)"/>
     <use xlink:href="#DejaVuSans-64" transform="translate(1099.992188 0)"/>
     <use xlink:href="#DejaVuSans-69" transform="translate(1163.46875 0)"/>
     <use xlink:href="#DejaVuSans-72" transform="translate(1191.251953 0)"/>
     <use xlink:href="#DejaVuSans-65" transform="translate(1230.115234 0)"/>
     <use xlink:href="#DejaVuSans-63" transform="translate(1291.638672 0)"/>
     <use xlink:href="#DejaVuSans-74" transform="translate(1346.619141 0)"/>
     <use xlink:href="#DejaVuSans-65" transform="translate(1385.828125 0)"/>
     <use xlink:href="#DejaVuSans-64" transform="translate(1447.351562 0)"/>
     <use xlink:href="#DejaVuSans-20" transform="translate(1510.828125 0)"/>
     <use xlink:href="#DejaVuSans-70" transform="translate(1542.615234 0)"/>
     <use xlink:href="#DejaVuSans-6f" transform="translate(1606.091797 0)"/>
     <use xlink:href="#DejaVuSans-73" transform="translate(1667.273438 0)"/>
     <use xlink:href="#DejaVuSans-74" transform="translate(1719.373047 0)"/>
     <use xlink:href="#DejaVuSans-20" transform="translate(1758.582031 0)"/>
     <use xlink:href="#DejaVuSans-5a" transform="translate(1790.369141 0)"/>
     <use xlink:href="#DejaVuSans-33" transform="translate(1858.875 0)"/>
    </g>
   </g>
  </g>
 </g>
 <defs>
  <clipPath id="pb5629b7e9f">
   <rect x="7.2" y="22.318125" width="1274.4" height="682.909091"/>
  </clipPath>
 </defs>
</svg>
